<svg xmlns="http://www.w3.org/2000/svg" width="4562" height="980" viewBox="0 0 4562 980">
  <g id="Group_18" data-name="Group 18" transform="translate(947 -5875)">
    <ellipse id="Ellipse_336" data-name="Ellipse 336" cx="39" cy="40" rx="39" ry="40" transform="translate(-947 5875)" fill="rgba(0,0,0,0.15)"/>
    <ellipse id="Ellipse_337" data-name="Ellipse 337" cx="39" cy="40" rx="39" ry="40" transform="translate(-711 5875)" fill="rgba(0,0,0,0.15)"/>
    <ellipse id="Ellipse_338" data-name="Ellipse 338" cx="39" cy="40" rx="39" ry="40" transform="translate(-475 5875)" fill="rgba(0,0,0,0.15)"/>
    <ellipse id="Ellipse_339" data-name="Ellipse 339" cx="39" cy="40" rx="39" ry="40" transform="translate(-239 5875)" fill="rgba(0,0,0,0.15)"/>
    <ellipse id="Ellipse_340" data-name="Ellipse 340" cx="39" cy="40" rx="39" ry="40" transform="translate(-3 5875)" fill="rgba(0,0,0,0.15)"/>
    <ellipse id="Ellipse_341" data-name="Ellipse 341" cx="39" cy="40" rx="39" ry="40" transform="translate(233 5875)" fill="rgba(0,0,0,0.15)"/>
    <ellipse id="Ellipse_342" data-name="Ellipse 342" cx="39" cy="40" rx="39" ry="40" transform="translate(469 5875)" fill="rgba(0,0,0,0.15)"/>
    <ellipse id="Ellipse_343" data-name="Ellipse 343" cx="39" cy="40" rx="39" ry="40" transform="translate(705 5875)" fill="rgba(0,0,0,0.15)"/>
    <ellipse id="Ellipse_344" data-name="Ellipse 344" cx="39" cy="40" rx="39" ry="40" transform="translate(941 5875)" fill="rgba(0,0,0,0.15)"/>
    <ellipse id="Ellipse_345" data-name="Ellipse 345" cx="39" cy="40" rx="39" ry="40" transform="translate(1177 5875)" fill="rgba(0,0,0,0.15)"/>
    <ellipse id="Ellipse_346" data-name="Ellipse 346" cx="39" cy="40" rx="39" ry="40" transform="translate(1413 5875)" fill="rgba(0,0,0,0.15)"/>
    <ellipse id="Ellipse_347" data-name="Ellipse 347" cx="39" cy="40" rx="39" ry="40" transform="translate(1649 5875)" fill="rgba(0,0,0,0.15)"/>
    <ellipse id="Ellipse_348" data-name="Ellipse 348" cx="39" cy="40" rx="39" ry="40" transform="translate(1885 5875)" fill="rgba(0,0,0,0.15)"/>
    <ellipse id="Ellipse_349" data-name="Ellipse 349" cx="39" cy="40" rx="39" ry="40" transform="translate(2121 5875)" fill="rgba(0,0,0,0.15)"/>
    <ellipse id="Ellipse_350" data-name="Ellipse 350" cx="39" cy="40" rx="39" ry="40" transform="translate(2357 5875)" fill="rgba(0,0,0,0.15)"/>
    <ellipse id="Ellipse_351" data-name="Ellipse 351" cx="39" cy="40" rx="39" ry="40" transform="translate(2593 5875)" fill="rgba(0,0,0,0.15)"/>
    <ellipse id="Ellipse_352" data-name="Ellipse 352" cx="39" cy="40" rx="39" ry="40" transform="translate(2829 5875)" fill="rgba(0,0,0,0.15)"/>
    <ellipse id="Ellipse_353" data-name="Ellipse 353" cx="39" cy="40" rx="39" ry="40" transform="translate(3065 5875)" fill="rgba(0,0,0,0.15)"/>
    <ellipse id="Ellipse_354" data-name="Ellipse 354" cx="39" cy="40" rx="39" ry="40" transform="translate(3301 5875)" fill="rgba(0,0,0,0.15)"/>
    <ellipse id="Ellipse_355" data-name="Ellipse 355" cx="39" cy="40" rx="39" ry="40" transform="translate(3537 5875)" fill="rgba(0,0,0,0.15)"/>
    <ellipse id="Ellipse_356" data-name="Ellipse 356" cx="39" cy="40" rx="39" ry="40" transform="translate(-947 6055)" fill="rgba(0,0,0,0.15)"/>
    <ellipse id="Ellipse_357" data-name="Ellipse 357" cx="39" cy="40" rx="39" ry="40" transform="translate(-711 6055)" fill="rgba(0,0,0,0.15)"/>
    <ellipse id="Ellipse_358" data-name="Ellipse 358" cx="39" cy="40" rx="39" ry="40" transform="translate(-475 6055)" fill="rgba(0,0,0,0.15)"/>
    <ellipse id="Ellipse_359" data-name="Ellipse 359" cx="39" cy="40" rx="39" ry="40" transform="translate(-239 6055)" fill="rgba(0,0,0,0.15)"/>
    <ellipse id="Ellipse_360" data-name="Ellipse 360" cx="39" cy="40" rx="39" ry="40" transform="translate(-3 6055)" fill="rgba(0,0,0,0.15)"/>
    <ellipse id="Ellipse_361" data-name="Ellipse 361" cx="39" cy="40" rx="39" ry="40" transform="translate(233 6055)" fill="rgba(0,0,0,0.15)"/>
    <ellipse id="Ellipse_362" data-name="Ellipse 362" cx="39" cy="40" rx="39" ry="40" transform="translate(469 6055)" fill="rgba(0,0,0,0.15)"/>
    <ellipse id="Ellipse_363" data-name="Ellipse 363" cx="39" cy="40" rx="39" ry="40" transform="translate(705 6055)" fill="rgba(0,0,0,0.15)"/>
    <ellipse id="Ellipse_364" data-name="Ellipse 364" cx="39" cy="40" rx="39" ry="40" transform="translate(941 6055)" fill="rgba(0,0,0,0.15)"/>
    <ellipse id="Ellipse_365" data-name="Ellipse 365" cx="39" cy="40" rx="39" ry="40" transform="translate(1177 6055)" fill="rgba(0,0,0,0.15)"/>
    <ellipse id="Ellipse_366" data-name="Ellipse 366" cx="39" cy="40" rx="39" ry="40" transform="translate(1413 6055)" fill="rgba(0,0,0,0.15)"/>
    <ellipse id="Ellipse_367" data-name="Ellipse 367" cx="39" cy="40" rx="39" ry="40" transform="translate(1649 6055)" fill="rgba(0,0,0,0.15)"/>
    <ellipse id="Ellipse_368" data-name="Ellipse 368" cx="39" cy="40" rx="39" ry="40" transform="translate(1885 6055)" fill="rgba(0,0,0,0.15)"/>
    <ellipse id="Ellipse_369" data-name="Ellipse 369" cx="39" cy="40" rx="39" ry="40" transform="translate(2121 6055)" fill="rgba(0,0,0,0.15)"/>
    <ellipse id="Ellipse_370" data-name="Ellipse 370" cx="39" cy="40" rx="39" ry="40" transform="translate(2357 6055)" fill="rgba(0,0,0,0.15)"/>
    <ellipse id="Ellipse_371" data-name="Ellipse 371" cx="39" cy="40" rx="39" ry="40" transform="translate(2593 6055)" fill="rgba(0,0,0,0.15)"/>
    <ellipse id="Ellipse_372" data-name="Ellipse 372" cx="39" cy="40" rx="39" ry="40" transform="translate(2829 6055)" fill="rgba(0,0,0,0.15)"/>
    <ellipse id="Ellipse_373" data-name="Ellipse 373" cx="39" cy="40" rx="39" ry="40" transform="translate(3065 6055)" fill="rgba(0,0,0,0.15)"/>
    <ellipse id="Ellipse_374" data-name="Ellipse 374" cx="39" cy="40" rx="39" ry="40" transform="translate(3301 6055)" fill="rgba(0,0,0,0.15)"/>
    <ellipse id="Ellipse_375" data-name="Ellipse 375" cx="39" cy="40" rx="39" ry="40" transform="translate(3537 6055)" fill="rgba(0,0,0,0.15)"/>
    <ellipse id="Ellipse_376" data-name="Ellipse 376" cx="39" cy="40" rx="39" ry="40" transform="translate(-947 6235)" fill="rgba(0,0,0,0.15)"/>
    <ellipse id="Ellipse_377" data-name="Ellipse 377" cx="39" cy="40" rx="39" ry="40" transform="translate(-711 6235)" fill="rgba(0,0,0,0.15)"/>
    <ellipse id="Ellipse_378" data-name="Ellipse 378" cx="39" cy="40" rx="39" ry="40" transform="translate(-475 6235)" fill="rgba(0,0,0,0.15)"/>
    <ellipse id="Ellipse_379" data-name="Ellipse 379" cx="39" cy="40" rx="39" ry="40" transform="translate(-239 6235)" fill="rgba(0,0,0,0.15)"/>
    <ellipse id="Ellipse_380" data-name="Ellipse 380" cx="39" cy="40" rx="39" ry="40" transform="translate(-3 6235)" fill="rgba(0,0,0,0.15)"/>
    <ellipse id="Ellipse_381" data-name="Ellipse 381" cx="39" cy="40" rx="39" ry="40" transform="translate(233 6235)" fill="rgba(0,0,0,0.15)"/>
    <ellipse id="Ellipse_382" data-name="Ellipse 382" cx="39" cy="40" rx="39" ry="40" transform="translate(469 6235)" fill="rgba(0,0,0,0.15)"/>
    <ellipse id="Ellipse_383" data-name="Ellipse 383" cx="39" cy="40" rx="39" ry="40" transform="translate(705 6235)" fill="rgba(0,0,0,0.15)"/>
    <ellipse id="Ellipse_384" data-name="Ellipse 384" cx="39" cy="40" rx="39" ry="40" transform="translate(941 6235)" fill="rgba(0,0,0,0.15)"/>
    <ellipse id="Ellipse_385" data-name="Ellipse 385" cx="39" cy="40" rx="39" ry="40" transform="translate(1177 6235)" fill="rgba(0,0,0,0.15)"/>
    <ellipse id="Ellipse_386" data-name="Ellipse 386" cx="39" cy="40" rx="39" ry="40" transform="translate(1413 6235)" fill="rgba(0,0,0,0.15)"/>
    <ellipse id="Ellipse_387" data-name="Ellipse 387" cx="39" cy="40" rx="39" ry="40" transform="translate(1649 6235)" fill="rgba(0,0,0,0.15)"/>
    <ellipse id="Ellipse_388" data-name="Ellipse 388" cx="39" cy="40" rx="39" ry="40" transform="translate(1885 6235)" fill="rgba(0,0,0,0.15)"/>
    <ellipse id="Ellipse_389" data-name="Ellipse 389" cx="39" cy="40" rx="39" ry="40" transform="translate(2121 6235)" fill="rgba(0,0,0,0.15)"/>
    <ellipse id="Ellipse_390" data-name="Ellipse 390" cx="39" cy="40" rx="39" ry="40" transform="translate(2357 6235)" fill="rgba(0,0,0,0.15)"/>
    <ellipse id="Ellipse_391" data-name="Ellipse 391" cx="39" cy="40" rx="39" ry="40" transform="translate(2593 6235)" fill="rgba(0,0,0,0.15)"/>
    <ellipse id="Ellipse_392" data-name="Ellipse 392" cx="39" cy="40" rx="39" ry="40" transform="translate(2829 6235)" fill="rgba(0,0,0,0.15)"/>
    <ellipse id="Ellipse_393" data-name="Ellipse 393" cx="39" cy="40" rx="39" ry="40" transform="translate(3065 6235)" fill="rgba(0,0,0,0.15)"/>
    <ellipse id="Ellipse_394" data-name="Ellipse 394" cx="39" cy="40" rx="39" ry="40" transform="translate(3301 6235)" fill="rgba(0,0,0,0.15)"/>
    <ellipse id="Ellipse_395" data-name="Ellipse 395" cx="39" cy="40" rx="39" ry="40" transform="translate(3537 6235)" fill="rgba(0,0,0,0.15)"/>
    <ellipse id="Ellipse_396" data-name="Ellipse 396" cx="39" cy="40" rx="39" ry="40" transform="translate(-947 6415)" fill="rgba(0,0,0,0.15)"/>
    <ellipse id="Ellipse_397" data-name="Ellipse 397" cx="39" cy="40" rx="39" ry="40" transform="translate(-711 6415)" fill="rgba(0,0,0,0.15)"/>
    <ellipse id="Ellipse_398" data-name="Ellipse 398" cx="39" cy="40" rx="39" ry="40" transform="translate(-475 6415)" fill="rgba(0,0,0,0.15)"/>
    <ellipse id="Ellipse_399" data-name="Ellipse 399" cx="39" cy="40" rx="39" ry="40" transform="translate(-239 6415)" fill="rgba(0,0,0,0.15)"/>
    <ellipse id="Ellipse_400" data-name="Ellipse 400" cx="39" cy="40" rx="39" ry="40" transform="translate(-3 6415)" fill="rgba(0,0,0,0.15)"/>
    <ellipse id="Ellipse_401" data-name="Ellipse 401" cx="39" cy="40" rx="39" ry="40" transform="translate(233 6415)" fill="rgba(0,0,0,0.15)"/>
    <ellipse id="Ellipse_402" data-name="Ellipse 402" cx="39" cy="40" rx="39" ry="40" transform="translate(469 6415)" fill="rgba(0,0,0,0.15)"/>
    <ellipse id="Ellipse_403" data-name="Ellipse 403" cx="39" cy="40" rx="39" ry="40" transform="translate(705 6415)" fill="rgba(0,0,0,0.15)"/>
    <ellipse id="Ellipse_404" data-name="Ellipse 404" cx="39" cy="40" rx="39" ry="40" transform="translate(941 6415)" fill="rgba(0,0,0,0.15)"/>
    <ellipse id="Ellipse_405" data-name="Ellipse 405" cx="39" cy="40" rx="39" ry="40" transform="translate(1177 6415)" fill="rgba(0,0,0,0.15)"/>
    <ellipse id="Ellipse_406" data-name="Ellipse 406" cx="39" cy="40" rx="39" ry="40" transform="translate(1413 6415)" fill="rgba(0,0,0,0.15)"/>
    <ellipse id="Ellipse_407" data-name="Ellipse 407" cx="39" cy="40" rx="39" ry="40" transform="translate(1649 6415)" fill="rgba(0,0,0,0.15)"/>
    <ellipse id="Ellipse_408" data-name="Ellipse 408" cx="39" cy="40" rx="39" ry="40" transform="translate(1885 6415)" fill="rgba(0,0,0,0.15)"/>
    <ellipse id="Ellipse_409" data-name="Ellipse 409" cx="39" cy="40" rx="39" ry="40" transform="translate(2121 6415)" fill="rgba(0,0,0,0.15)"/>
    <ellipse id="Ellipse_410" data-name="Ellipse 410" cx="39" cy="40" rx="39" ry="40" transform="translate(2357 6415)" fill="rgba(0,0,0,0.15)"/>
    <ellipse id="Ellipse_411" data-name="Ellipse 411" cx="39" cy="40" rx="39" ry="40" transform="translate(2593 6415)" fill="rgba(0,0,0,0.15)"/>
    <ellipse id="Ellipse_412" data-name="Ellipse 412" cx="39" cy="40" rx="39" ry="40" transform="translate(2829 6415)" fill="rgba(0,0,0,0.15)"/>
    <ellipse id="Ellipse_413" data-name="Ellipse 413" cx="39" cy="40" rx="39" ry="40" transform="translate(3065 6415)" fill="rgba(0,0,0,0.15)"/>
    <ellipse id="Ellipse_414" data-name="Ellipse 414" cx="39" cy="40" rx="39" ry="40" transform="translate(3301 6415)" fill="rgba(0,0,0,0.15)"/>
    <ellipse id="Ellipse_415" data-name="Ellipse 415" cx="39" cy="40" rx="39" ry="40" transform="translate(3537 6415)" fill="rgba(0,0,0,0.15)"/>
    <ellipse id="Ellipse_416" data-name="Ellipse 416" cx="39" cy="40" rx="39" ry="40" transform="translate(-947 6595)" fill="rgba(0,0,0,0.15)"/>
    <ellipse id="Ellipse_417" data-name="Ellipse 417" cx="39" cy="40" rx="39" ry="40" transform="translate(-711 6595)" fill="rgba(0,0,0,0.15)"/>
    <ellipse id="Ellipse_418" data-name="Ellipse 418" cx="39" cy="40" rx="39" ry="40" transform="translate(-475 6595)" fill="rgba(0,0,0,0.15)"/>
    <ellipse id="Ellipse_419" data-name="Ellipse 419" cx="39" cy="40" rx="39" ry="40" transform="translate(-239 6595)" fill="rgba(0,0,0,0.15)"/>
    <ellipse id="Ellipse_420" data-name="Ellipse 420" cx="39" cy="40" rx="39" ry="40" transform="translate(-3 6595)" fill="rgba(0,0,0,0.15)"/>
    <ellipse id="Ellipse_421" data-name="Ellipse 421" cx="39" cy="40" rx="39" ry="40" transform="translate(233 6595)" fill="rgba(0,0,0,0.15)"/>
    <ellipse id="Ellipse_422" data-name="Ellipse 422" cx="39" cy="40" rx="39" ry="40" transform="translate(469 6595)" fill="rgba(0,0,0,0.15)"/>
    <ellipse id="Ellipse_423" data-name="Ellipse 423" cx="39" cy="40" rx="39" ry="40" transform="translate(705 6595)" fill="rgba(0,0,0,0.15)"/>
    <ellipse id="Ellipse_424" data-name="Ellipse 424" cx="39" cy="40" rx="39" ry="40" transform="translate(941 6595)" fill="rgba(0,0,0,0.15)"/>
    <ellipse id="Ellipse_425" data-name="Ellipse 425" cx="39" cy="40" rx="39" ry="40" transform="translate(1177 6595)" fill="rgba(0,0,0,0.15)"/>
    <ellipse id="Ellipse_426" data-name="Ellipse 426" cx="39" cy="40" rx="39" ry="40" transform="translate(1413 6595)" fill="rgba(0,0,0,0.15)"/>
    <ellipse id="Ellipse_427" data-name="Ellipse 427" cx="39" cy="40" rx="39" ry="40" transform="translate(1649 6595)" fill="rgba(0,0,0,0.15)"/>
    <ellipse id="Ellipse_428" data-name="Ellipse 428" cx="39" cy="40" rx="39" ry="40" transform="translate(1885 6595)" fill="rgba(0,0,0,0.15)"/>
    <ellipse id="Ellipse_429" data-name="Ellipse 429" cx="39" cy="40" rx="39" ry="40" transform="translate(2121 6595)" fill="rgba(0,0,0,0.15)"/>
    <ellipse id="Ellipse_430" data-name="Ellipse 430" cx="39" cy="40" rx="39" ry="40" transform="translate(2357 6595)" fill="rgba(0,0,0,0.15)"/>
    <ellipse id="Ellipse_431" data-name="Ellipse 431" cx="39" cy="40" rx="39" ry="40" transform="translate(2593 6595)" fill="rgba(0,0,0,0.15)"/>
    <ellipse id="Ellipse_432" data-name="Ellipse 432" cx="39" cy="40" rx="39" ry="40" transform="translate(2829 6595)" fill="rgba(0,0,0,0.15)"/>
    <ellipse id="Ellipse_433" data-name="Ellipse 433" cx="39" cy="40" rx="39" ry="40" transform="translate(3065 6595)" fill="rgba(0,0,0,0.15)"/>
    <ellipse id="Ellipse_434" data-name="Ellipse 434" cx="39" cy="40" rx="39" ry="40" transform="translate(3301 6595)" fill="rgba(0,0,0,0.15)"/>
    <ellipse id="Ellipse_435" data-name="Ellipse 435" cx="39" cy="40" rx="39" ry="40" transform="translate(3537 6595)" fill="rgba(0,0,0,0.15)"/>
    <ellipse id="Ellipse_436" data-name="Ellipse 436" cx="39" cy="40" rx="39" ry="40" transform="translate(-947 6775)" fill="rgba(0,0,0,0.15)"/>
    <ellipse id="Ellipse_437" data-name="Ellipse 437" cx="39" cy="40" rx="39" ry="40" transform="translate(-711 6775)" fill="rgba(0,0,0,0.15)"/>
    <ellipse id="Ellipse_438" data-name="Ellipse 438" cx="39" cy="40" rx="39" ry="40" transform="translate(-475 6775)" fill="rgba(0,0,0,0.15)"/>
    <ellipse id="Ellipse_439" data-name="Ellipse 439" cx="39" cy="40" rx="39" ry="40" transform="translate(-239 6775)" fill="rgba(0,0,0,0.15)"/>
    <ellipse id="Ellipse_440" data-name="Ellipse 440" cx="39" cy="40" rx="39" ry="40" transform="translate(-3 6775)" fill="rgba(0,0,0,0.15)"/>
    <ellipse id="Ellipse_441" data-name="Ellipse 441" cx="39" cy="40" rx="39" ry="40" transform="translate(233 6775)" fill="rgba(0,0,0,0.15)"/>
    <ellipse id="Ellipse_442" data-name="Ellipse 442" cx="39" cy="40" rx="39" ry="40" transform="translate(469 6775)" fill="rgba(0,0,0,0.15)"/>
    <ellipse id="Ellipse_443" data-name="Ellipse 443" cx="39" cy="40" rx="39" ry="40" transform="translate(705 6775)" fill="rgba(0,0,0,0.15)"/>
    <ellipse id="Ellipse_444" data-name="Ellipse 444" cx="39" cy="40" rx="39" ry="40" transform="translate(941 6775)" fill="rgba(0,0,0,0.15)"/>
    <ellipse id="Ellipse_445" data-name="Ellipse 445" cx="39" cy="40" rx="39" ry="40" transform="translate(1177 6775)" fill="rgba(0,0,0,0.15)"/>
    <ellipse id="Ellipse_446" data-name="Ellipse 446" cx="39" cy="40" rx="39" ry="40" transform="translate(1413 6775)" fill="rgba(0,0,0,0.15)"/>
    <ellipse id="Ellipse_447" data-name="Ellipse 447" cx="39" cy="40" rx="39" ry="40" transform="translate(1649 6775)" fill="rgba(0,0,0,0.15)"/>
    <ellipse id="Ellipse_448" data-name="Ellipse 448" cx="39" cy="40" rx="39" ry="40" transform="translate(1885 6775)" fill="rgba(0,0,0,0.15)"/>
    <ellipse id="Ellipse_449" data-name="Ellipse 449" cx="39" cy="40" rx="39" ry="40" transform="translate(2121 6775)" fill="rgba(0,0,0,0.15)"/>
    <ellipse id="Ellipse_450" data-name="Ellipse 450" cx="39" cy="40" rx="39" ry="40" transform="translate(2357 6775)" fill="rgba(0,0,0,0.15)"/>
    <ellipse id="Ellipse_451" data-name="Ellipse 451" cx="39" cy="40" rx="39" ry="40" transform="translate(2593 6775)" fill="rgba(0,0,0,0.15)"/>
    <ellipse id="Ellipse_452" data-name="Ellipse 452" cx="39" cy="40" rx="39" ry="40" transform="translate(2829 6775)" fill="rgba(0,0,0,0.15)"/>
    <ellipse id="Ellipse_453" data-name="Ellipse 453" cx="39" cy="40" rx="39" ry="40" transform="translate(3065 6775)" fill="rgba(0,0,0,0.15)"/>
    <ellipse id="Ellipse_454" data-name="Ellipse 454" cx="39" cy="40" rx="39" ry="40" transform="translate(3301 6775)" fill="rgba(0,0,0,0.15)"/>
    <ellipse id="Ellipse_455" data-name="Ellipse 455" cx="39" cy="40" rx="39" ry="40" transform="translate(3537 6775)" fill="rgba(0,0,0,0.15)"/>
  </g>
</svg>
