<svg xmlns="http://www.w3.org/2000/svg" width="313.51" height="63" viewBox="0 0 313.51 63">
  <g id="Group_7" data-name="Group 7" transform="translate(-155.49 -98)">
    <g id="default" transform="translate(181 99)">
      <rect id="Rectangle_9" data-name="Rectangle 9" width="270" height="63" transform="translate(18 -1)" fill="rgba(0,0,0,0)"/>
      <g id="fc99a14d-7a69-41b9-9585-874be3d6aec0" transform="translate(23 13.902)">
        <path id="Path_127" data-name="Path 127" d="M18.255,38.8C26.68,38.8,32.3,35.918,32.3,28.047c0-4.4-2.956-7.612-7.428-8.684a8,8,0,0,0,5.691-8.13c0-6.615-5.469-9.682-13.007-9.682H4.139V38.8ZM9.053,5.949h7.391c4.878,0,9.053.813,9.053,5.912,0,4.545-4.139,5.728-8.425,5.728H9.053Zm0,16.038H17.59c4.8,0,9.46,1.035,9.46,6.06,0,5.063-3.732,6.356-8.795,6.356h-9.2Zm52.1,4.545c.037-.37.037-1.552.037-1.7,0-7.8-4.065-13.709-12.194-13.709-7.464,0-12.305,5.321-12.305,14.227S41.535,39.576,49,39.576c5.839,0,10.273-2.956,11.825-8.943l-4.4-.924A7.265,7.265,0,0,1,49.258,35.7c-3.88,0-7.5-2.7-7.908-9.164ZM49,15c4.323,0,7.021,3.252,7.243,7.8H41.5C42.311,17.331,45.785,15,49,15ZM71.023,38.8V24.167c0-5.912,2.919-9.127,7.132-9.127,4.065,0,5.543,2.808,5.543,7.464V38.8h4.656V22.283c0-6.393-1.811-11.16-9.238-11.16-3.732,0-6.578,1.33-8.536,4.656V11.9H66.367V38.8ZM98.184,25.35C98.184,18,101.768,15,105.833,15c3.178,0,5.691,1.811,6.688,6.1l4.508-1.035c-1.441-5.617-5.4-8.943-11.2-8.943-7.428,0-12.305,5.321-12.305,14.227s4.878,14.227,12.305,14.227c5.8,0,9.756-3.252,11.2-8.906l-4.508-1.035c-1,4.25-3.511,6.06-6.688,6.06C101.768,35.7,98.184,32.7,98.184,25.35ZM126.859,38.8V24.167c0-5.912,2.882-9.127,7.132-9.127,4.028,0,5.543,2.808,5.543,7.464V38.8h4.656V22.283c0-6.393-1.811-11.16-9.275-11.16-3.732,0-6.578,1.515-8.056,4.434V1.552H122.2V38.8Zm28.712,0V24.869c0-4.915,1.072-9.829,6.615-9.829,3.141,0,4.767,2.291,4.767,6.319V38.8h4.656V23.243c0-4.4,1.848-8.2,6.578-8.2,3.954,0,4.73,3.289,4.73,6.836V38.8h4.656V20.4c0-6.023-2.882-9.275-8.425-9.275a8.68,8.68,0,0,0-8.277,4.952c-1.072-3.141-3.732-4.952-7.649-4.952a8.509,8.509,0,0,0-8.13,4.619V11.9h-4.176V38.8Zm55.392-3.326a5.432,5.432,0,0,0,1.109,3.326h4.693c-.924-1-1.441-2.735-1.441-5.469V21.507c0-6.762-3.215-10.384-10.421-10.384-5.173,0-9.977,1.922-11.308,8.13l4.4.961c.924-3.511,3.1-5.358,6.467-5.358,3.547,0,6.208,1.552,6.208,5.728v1.035a28.746,28.746,0,0,1-7.354,1.4c-5.986.554-10.569,2.882-10.569,8.684,0,5.506,4.213,7.871,9.164,7.871A11.6,11.6,0,0,0,210.964,35.475Zm-.3-3.917c-1.4,1.811-4.545,4.287-8.019,4.287-2.476,0-5.026-.924-5.026-4.323,0-3.7,3.363-4.323,6.208-4.767a34.692,34.692,0,0,0,6.836-1.552ZM227.112,38.8V24.278c0-5.247,2.217-8.758,6.688-8.758a5.448,5.448,0,0,1,3.547,1.146l1.4-4.1a7.336,7.336,0,0,0-4.767-1.441c-3.363,0-5.617,1.811-7.354,5.432V11.9h-4.176V38.8Zm15.262,0h4.656V27.16h2.18c2.069,0,3.732.924,5.1,3.363l4.4,8.277h5.432l-4.952-8.943c-1.589-2.661-3.621-4.287-5.58-4.767v-.222c2-.517,3.474-2.217,4.693-5.321.776-1.958.924-3.363,3.363-3.363h1.293V11.9h-.924c-2.993,0-4.508.148-5.949,2.7-.48.813-1.959,4.767-2.845,6.208a4.846,4.846,0,0,1-4.545,2.476h-1.663V1.552h-4.656Z" transform="translate(-4.139 -1.552)"/>
      </g>
      <g id="fcec03ca-5dcb-4383-bc3a-072146c2f0ec" transform="translate(-25.506 5.886)">
        <path id="Path_128" data-name="Path 128" d="M52,5H18.906C14,5,14,5,14,6V55a1,1,0,0,0,1,1H49a1,1,0,0,0,1-1V15c0-.013-.007-.024-.008-.038a.946.946,0,0,0-.287-.671L42.414,7H51V57H18a1,1,0,0,0,0,2H52a1,1,0,0,0,1-1V6A1,1,0,0,0,52,5ZM41,8.413,46.586,14H41ZM16,54V7H39v8a1,1,0,0,0,1,1h8V54Z" transform="translate(-14.004 -5.001)" fill="#5a9367"/>
        <path id="Path_129" data-name="Path 129" d="M29,19h6a1,1,0,0,0,1-1V17a1,1,0,0,0,2,0V15a1,1,0,0,0-2,0V14a1,1,0,0,0-1-1H29a1,1,0,0,0-1,1v4A1,1,0,0,0,29,19Zm1-4h4v2H30Zm-4,9H38a1,1,0,0,0,0-2H26a1,1,0,0,0,0,2Zm17,3H21a1,1,0,0,0,0,2H43a1,1,0,0,0,0-2Zm0,4H21a1,1,0,0,0,0,2H43a1,1,0,0,0,0-2Zm0,4H21a1,1,0,0,0,0,2H43a1,1,0,0,0,0-2Zm0,4H21a1,1,0,0,0,0,2H43a1,1,0,0,0,0-2Zm0,4H21a1,1,0,0,0,0,2H43a1,1,0,0,0,0-2Zm0,4H21a1,1,0,0,0,0,2H43a1,1,0,0,0,0-2Z" transform="translate(-14.004 -5.001)" fill="#5a9367"/>
      </g>
    </g>
  </g>
</svg>
