<svg xmlns="http://www.w3.org/2000/svg" xmlns:xlink="http://www.w3.org/1999/xlink" width="3764.767" height="2058.118" viewBox="0 0 3764.767 2058.118">
  <defs>
    <clipPath id="clip-path">
      <circle id="Ellipse_10" data-name="Ellipse 10" cx="242" cy="242" r="242" transform="translate(-637.9 -211.9)"/>
    </clipPath>
    <clipPath id="clip-path-2">
      <circle id="Ellipse_12" data-name="Ellipse 12" cx="218.2" cy="218.2" r="218.2" transform="translate(-614.1 -188.1)"/>
    </clipPath>
    <clipPath id="clip-path-3">
      <path id="Path_140" data-name="Path 140" d="M-329.5,1.8l61.7-45.1c5.4-4.4,9.5-3.4,9.5,4.7V98.9c0,9.1-5.1,8.1-9.5,4.7l-61.7-45.1Zm-208.8-40V64.2A42,42,0,0,0-496.1,106h149.5a7.748,7.748,0,0,0,7.7-7.6V-4.1a42,42,0,0,0-42.2-41.8H-530.6A7.835,7.835,0,0,0-538.3-38.2Z"/>
    </clipPath>
  </defs>
  <g id="Group_21" data-name="Group 21" transform="translate(-5046.9 -5713)">
    <g id="head_Long" data-name="head/Long" transform="translate(5090.5 6573.843)">
      <path id="_Skin" data-name="âœ‹ Skin" d="M395.9,175.053c-3.79-62.2-23.974-132.723-83.378-163.263C181.564-40.768,9.38,91.588.264,226.8c-3.178,46.284,22.52,96.859,69.481,109.727,10.441,13.833,26.231,22.281,41.816,29.613,185.627,96.307,305.534,18.02,284.34-191.087Z" transform="translate(121 63.156)" fill="#d08b5b"/>
      <path id="_Ink" data-name="ðŸ– Ink" d="M559.189,199.517q-9.84-27.33-20.78-54.24c-7.1-17.46-13.513-35.3-22.33-51.93-52.66-99.34-148.42-99.34-197.92-86.36-25.67-11.06-73.751-7.94-100.48,2.04C174.407,25.184,121.658,88.742,103.623,117.3,63.8,180.347,38.954,264.264,65.4,337.12a164.141,164.141,0,0,0,12.83,26.84,104.679,104.679,0,0,1-10.713,12.2c-11.848,11.722-23.7,23.058-33.931,36.279A180.383,180.383,0,0,0,8.71,454.951C-3.126,484-3.7,516.9,11.952,544.62c13.614,24.12,37.731,42.081,64.9,43.794,1.395.194,2.792.372,4.195.513a78.548,78.548,0,0,0,13,16.15c15.35,14.6,51.94,22.09,72.81,22.57,1.07.86,2.15,1.72,3.23,2.57,12.77,10.05,26.17,20.19,40.83,27.34,9.93,4.85,22.95,8.9,33.31,5.4,4.7,3.14,12.41,2.48,17.07-.09,7.66-4.22,13.89-11.82,17.68-19.6,9.19-18.89,6.98-39.56,4.62-59.74-2.6-22.29-5.1-44.59-7.64-66.88-1.99-17.43-4.07-35.15-9.37-51.94a119.344,119.344,0,0,0-10.97-24.92,4.094,4.094,0,0,0-.09-1.94c-1.52-4.94-4.66-7.53-8.38-10.89-.48-.43-.96-.87-1.43-1.32a45.024,45.024,0,0,0-5.98-5.76c-.82-.83-1.63-1.67-2.44-2.51a203.43,203.43,0,0,1-18.74-22.4c-5.48-7.7-10.43-15.74-15.14-23.93-4.79-8.33-7.96-17.52-12.74-25.79a1.311,1.311,0,0,0-2.03-.26c-1.48,1.53-2.43,3.23-2.25,5.02l-.74.11a5.029,5.029,0,0,0-6.15-4.31c-5.06.88-9.22,1.21-13.6-.47.77-5.11,1.48-10.23,2.18-15.36,1.28-9.44,2.47-18.91,3.49-28.38a41.184,41.184,0,0,1,7.32,2.52,35.28,35.28,0,0,1,9.41,6.12c2.72,2.5,4.6,5.87,7.92,7.61a5.039,5.039,0,0,0,7.31-5.62c-2.27-8.73-15.12-13.73-23.07-15.38a36.79,36.79,0,0,0-8.31-.75q.945-9.12,1.65-18.25.33-4.32.61-8.65a45.449,45.449,0,0,1,19.23-1.55c2.12,1.69,4.24,3.36,6.29,5.05,6.51,5.38,12.99,10.79,19.39,16.3.58.49,1.15.98,1.73,1.48,3.8,3.27,8.54.03,7.9-4.6-5.22-37.94,18.02-68.12,45.23-91.5,30.12-25.89,84.88-28.9,120.7-73.75,16.5,3.358,53.33,13.33,68.53,37.55,21.28,33.94,18.5,64.35,20.12,102.85,1.62,38.53,5.74,78.72-3.01,116.71-8.07,35.03-29.92,64.96-63.82,78.72-.84.34-1.69.67-2.54.99a102.614,102.614,0,0,1-55.1,5c-20.41-3.86-58.49.27-75.47-11.22-.98-.65-17.75-7.343-17.01-6.363,1.813,2.4,10.138,4.042,12.39,6.363,23.423,24.152,93.154,27.136,125.2,19.94q2.445-.555,4.86-1.21a91.713,91.713,0,0,0,3.93,68.89,92.747,92.747,0,0,0,26.78,33.48c12.51,9.88,28.03,17.86,36.71,31.73,7.95,12.71,5.59,26.99-8.02,34.33-3.43,1.86-4.75,7.87-1.35,10.51,1.3,1,2.6,2.02,3.93,3.02,7.62,5.75,28.55,16.55,31.94,16.95,30.1,3.57,50.34-18.53,63.31-44.6,15.23-30.6,11.27-67.89-5.51-97.03-13.46-23.38-39.97-46.42-29.43-76.01,3.76-10.57,11.45-19.58,18.92-27.72,8.52-9.27,17.68-17.95,25.85-27.55,8.12-9.53,15.32-19.9,19.34-31.86,5.87-17.48,2.95-36.38-1.46-53.83C584.529,272.807,572.259,235.847,559.189,199.517Z"/>
    </g>
    <g id="face_Cute" data-name="face/Cute" transform="translate(5314.5 6749)">
      <path id="_Ink-2" data-name="ðŸ– Ink" d="M111.346,176.2a26.224,26.224,0,0,1-10.869-2.486,27.253,27.253,0,0,1-9.074-6.7,21.094,21.094,0,0,1-4.147-7.038,17.917,17.917,0,0,1-.82-8.27,2.822,2.822,0,0,1,3.056-2.525,4.518,4.518,0,0,1,3.541,1.663l.606.824a34.443,34.443,0,0,0,6.621,7.121,14.065,14.065,0,0,0,8.767,3.281,12.806,12.806,0,0,0,10.492-5.436,15.394,15.394,0,0,0,2.331-5.623,18.985,18.985,0,0,1,1.683-4.668,8.121,8.121,0,0,1,7.232-3.986c3.324,0,7.087,1.848,8,5.977a16.566,16.566,0,0,1-.311,8.3,22.354,22.354,0,0,1-3.952,7.488c-5.4,6.909-14.692,11.874-22.595,12.076C111.724,176.2,111.534,176.2,111.346,176.2Zm7.211-53.576c-6.917,0-14.914-1.778-23.769-5.281a6.26,6.26,0,0,1-3.215-2.936,5.861,5.861,0,0,1-.443-3.76A6.117,6.117,0,0,1,93,107.357a5.441,5.441,0,0,1,3.693-1.4,6.946,6.946,0,0,1,2.18.37l1.209.5.005,0c5.176,2.154,13,5.41,19.7,5.41a14.449,14.449,0,0,0,6.053-1.178,10.4,10.4,0,0,0,4.587-4.129,10.576,10.576,0,0,0-.18-8.8c-1.384-2.9-4.1-5.614-8.063-8.053a47.478,47.478,0,0,0-10.454-4.66,2.537,2.537,0,0,1-1.488-2.846c.208-1.2,1.269-2.506,3.626-2.56.288-.007.578-.01.863-.01,7.554,0,14.156,2.3,19.093,6.659a23.488,23.488,0,0,1,5.347,6.826,21.919,21.919,0,0,1,2.369,7.825,19.369,19.369,0,0,1-.686,7.638,17.473,17.473,0,0,1-3.769,6.712c-2.861,3.175-8.4,6.961-18.526,6.961h0ZM7.8,79.1a2.466,2.466,0,0,1-2.2-1.6,1.686,1.686,0,0,1,.571-1.952,84.247,84.247,0,0,1,13.982-9.215,96.277,96.277,0,0,1,15.621-6.606,10.044,10.044,0,0,1-1.451-4.075,8.519,8.519,0,0,1,.489-4.21c.173-.577.389-1.132.577-1.6l.445-1.085a7.835,7.835,0,0,1,.283-1.511l.023-.15.013.009a8.511,8.511,0,0,1,2.04-3.427,7.66,7.66,0,0,1,3.42-2.057,7.51,7.51,0,0,1,1.993-.27,7.786,7.786,0,0,1,3.061.633,9.114,9.114,0,0,1,4.592,2.4,10.369,10.369,0,0,1,2.761,4.4c.08.285.17.569.268.844l.154.415-.414-1.054a6.733,6.733,0,0,0,.708,1.74,8.5,8.5,0,0,1,.632,1.431A11.382,11.382,0,0,1,55.71,56.3c1.271.013,2.318.058,3.292.143l1.058.094C65.929,57.086,72.484,58.1,76,63.219a4.852,4.852,0,0,1,.8,2.607,6.6,6.6,0,0,1-.551,2.808,5.1,5.1,0,0,1-3.75,3.193,13.117,13.117,0,0,1-1.977.148,26.442,26.442,0,0,1-7.675-1.518,35.409,35.409,0,0,0-6.287-1.481,48.749,48.749,0,0,0-5.371-.29,58.884,58.884,0,0,0-10.567.989A138.342,138.342,0,0,0,22.11,74.86c-4.055,1.344-8.249,2.733-12.471,3.834l-1.42.361,0-.007A1.792,1.792,0,0,1,7.8,79.1Zm166.329-8.4a4.059,4.059,0,0,1-3.819-2.42l-.1-.212c-1.258-2.928-4.71-4.412-10.261-4.412a43.044,43.044,0,0,0-4.976.324,59.225,59.225,0,0,0-9.3,2.03c-1.111.32-2.192.663-3.195.986l-1.061.345c-.472.152-2.313,1.145-2.273,1.4.007.042.062.063.165.063a2.31,2.31,0,0,0,.428-.058.471.471,0,0,1,.1-.01.528.528,0,0,1,.494.412.387.387,0,0,1-.228.455,2.753,2.753,0,0,1-1.195.277,3.074,3.074,0,0,1-2.2-1.012,3.568,3.568,0,0,1-.973-2.649c.223-3.591,5.266-5.75,8.6-7.178.445-.191.866-.371,1.237-.538l.186-.085c1.229-.568,2.486-1.1,3.737-1.571a18.141,18.141,0,0,1-1.825-3.569,15.664,15.664,0,0,1-.96-3.691,3.609,3.609,0,0,1,0-1.9l.026-.181a5.876,5.876,0,0,1-.124-1.285l-.018-.168h.018a6.163,6.163,0,0,1,1.655-4.038,5.3,5.3,0,0,1,3.81-1.608,6.876,6.876,0,0,1,4.075,1.459l.316.248a13.21,13.21,0,0,1,5.332,5.2,12.868,12.868,0,0,1,2.145,6.555c6.2.02,11.208,2.088,14.9,6.145,1.169,1.285,2.26,3.528,1.487,5.621l-.43,1.163A6.449,6.449,0,0,1,174.128,70.7ZM2.77,40.872a2.5,2.5,0,0,1-2.255-1.7,12.076,12.076,0,0,1,.254-7.677,33.725,33.725,0,0,1,3.366-7.146,37.874,37.874,0,0,1,12.379-12.12c5.5-3.475,11.517-5.4,17.213-7.078l1.5-.437c1.1-.319,2.222-.676,3.307-1.021,3.551-1.131,7.222-2.3,10.712-2.3a12.548,12.548,0,0,1,8.625,3.249A7.878,7.878,0,0,1,60.28,9.577a8.156,8.156,0,0,1-1.08,5.382,11.776,11.776,0,0,1-6.526,5.085A31.029,31.029,0,0,1,44.6,21.083c-1.147.05-2.333.1-3.528.2A57.192,57.192,0,0,0,13.56,31.812a31.883,31.883,0,0,0-4.517,4.162,27.4,27.4,0,0,1-5.155,4.569A2.1,2.1,0,0,1,2.77,40.872ZM173.525,30.283a9.207,9.207,0,0,1-7.089-3.811l-.158-.2a41.976,41.976,0,0,0-7.22-7.493,40.569,40.569,0,0,0-8.892-5.438,42.61,42.61,0,0,0-10.031-3.127l-1.1-.188a21.688,21.688,0,0,0-3.439-.362,7.625,7.625,0,0,0-1.286.1,5.412,5.412,0,0,0-2.066.721.777.777,0,0,1-.069.754.891.891,0,0,1-.735.419.829.829,0,0,1-.4-.106,4.031,4.031,0,0,1-2.3-2.989,5.541,5.541,0,0,1,2.131-4.5c1.692-1.561,4.293-2.687,7.729-3.349A46.047,46.047,0,0,1,147.164,0h.01a38.947,38.947,0,0,1,18.76,5,42.482,42.482,0,0,1,14.412,13.044,7.112,7.112,0,0,1,.952,5.646,8.575,8.575,0,0,1-3.875,5.5A7.649,7.649,0,0,1,173.525,30.283Z" transform="translate(54 59)"/>
    </g>
    <g id="Group_20" data-name="Group 20" transform="translate(-2803 -302)">
      <g id="body_Turtleneck" data-name="body/Turtleneck" transform="translate(7889.5 7315)">
        <path id="_Skin-2" data-name="âœ‹ Skin" d="M44.828,118.7c39.452-10.965,62.851-10.965,76.091-27.952s15.643-46.146,21.135-68.66C145.08,9.687,174.73-1.581,203.492.183c23.438,1.438,47.06,13.927,48.884,21.909,4.063,17.777,10.6,93.874,32.087,105.565s67.366,1.033,80.483,28.952,56.193,141.732,56.193,168.252S0,343.271,0,343.271,5.376,129.669,44.828,118.7Z" transform="translate(155.511 0)" fill="#d08b5b"/>
        <path id="_Ink-3" data-name="ðŸ– Ink" d="M16.414,725.016h0a13.767,13.767,0,0,1-9.935-3.986,17.8,17.8,0,0,1-3.9-5.521,25.655,25.655,0,0,1-1.931-6.525,79.369,79.369,0,0,1-.587-14.449V694.5q.011-.555.021-1.107l.206-11.606.067-3.8q.137-7.717.273-15.433c.312-17.473.54-35.272.76-52.485v-.035c.409-31.9.832-64.891,1.8-97.3,1.09-36.363,2.771-68.091,5.138-97,1.683-20.517,3.645-38.9,6-56.2,2.725-20.039,5.912-38.221,9.741-55.586a483.937,483.937,0,0,1,14.889-53.475c3.034-8.784,6.336-17.356,9.814-25.478C52.387,216.557,56.3,208.352,60.4,200.6a310.931,310.931,0,0,1,52.285-71.85,298.453,298.453,0,0,1,31.721-28.168A285.732,285.732,0,0,1,178.787,77.93a296.2,296.2,0,0,1,37.276-17.69c6.278-2.43,12.757-4.388,19.022-6.281,5.335-1.612,10.852-3.279,16.218-5.229,5.724-2.079,9.508-3.631,13.78-7.639l-.016.013c0-.009.124-.138.323-.35l.006-.006c.27-.285.636-.673.75-.817.356-.43.7-.855,1.053-1.3.335-.441.551-.725.666-.869.306-.538.59-1.134.841-1.661,1.119-2.378,1.555-4.867,2.158-8.312q.068-.391.14-.8a56.171,56.171,0,0,1,1.685-7.48,19.538,19.538,0,0,1,3.379-6.46,20.608,20.608,0,0,1,6.974-5.8,7.618,7.618,0,0,1,3.588-.878,8.5,8.5,0,0,1,2.727.457c1.267-3.216,2.918-5.511,4.906-6.82A.087.087,0,0,1,294.3,0a.075.075,0,0,1,.064.04c1.569,3.269,1.608,6.29,1.652,9.788v.042c.005.431.011.877.02,1.33.038,2.321.085,4.8.174,7.24,4.925,4.251,11.545,5.709,17.387,6.995.813.179,1.58.348,2.346.525a302.786,302.786,0,0,0,30.873,5.75A189.935,189.935,0,0,0,370.661,33.2c2.687,0,5.428-.056,8.146-.165,5.2-.209,10.451-.643,15.619-1.29a9.383,9.383,0,0,0,4.8-2.577c1.441-1.195,2.8-2.323,4.685-2.323a5.22,5.22,0,0,1,1.215.15l3.79-4.66a2.384,2.384,0,0,0,.144-.78c.217-1.761.726-5.883,3.5-7.66a2.788,2.788,0,0,1,1.51-.486,3.057,3.057,0,0,1,2.183,1.086,14.111,14.111,0,0,1,2.433,4.583,27.669,27.669,0,0,0,1.11,2.587,16.065,16.065,0,0,0,1.671,2.489c1.848-.7,3.707-1.314,5.524-1.82a.145.145,0,0,1,.038,0c.924,0,8.009,6.61,19.439,18.134,11.656,11.753,26.092,26.877,39.6,41.5,15.967,17.273,29.895,33.006,40.277,45.5,12.531,15.076,19.75,25.216,21.456,30.138,7.074,20.4,11.155,42.5,15.1,63.867l.007.038c.8,4.335,1.629,8.818,2.467,13.206,2.478,12.955,5.117,26.091,7.668,38.8v.006c3.282,16.342,6.675,33.238,9.765,49.929,5.167,27.884,10.413,56.21,15.509,83.724l.863,4.659q8.034,43.379,16.071,86.757c3.039,16.426,6.133,33.132,9.125,49.287l.116.624q3.67,19.816,7.338,39.629c1.37,7.386,2.808,15.152,3.963,21.392l.15.81c1.252,6.76,2.546,13.751,3.82,20.618q1.3,7.044,2.608,14.081l.241,1.3,1.478,7.98c.321,1.732.709,3.508,1.121,5.388,1.128,5.154,2.294,10.481,2.16,15.432-.439,15.969-13.328,17.663-23.685,19.024-1.611.212-3.133.412-4.55.657-3.165.548-6.393,1.159-9.514,1.75a240.946,240.946,0,0,1-24.465,3.77c-1.5.126-3,.19-4.45.19-9.472,0-17.629-2.678-24.244-7.96l-.7,5.542-.088.7a26.279,26.279,0,0,1-1.022,8.2,12.959,12.959,0,0,1-3.507,6.329,8.178,8.178,0,0,1-5.676,2.444,7.515,7.515,0,0,1-2.465-.423,8.529,8.529,0,0,1-3.575-2.38h-.007a27.247,27.247,0,0,1-6.775.99c-7.417.262-14.953.489-22.242.709h-.023l-.669.02-12.869.392h-.023c-10.811.328-21.99.667-32.99,1.027-65.5,2.146-115.769,3.219-162.981,3.479l-1.337.007c-13.389.073-27.234.149-40.864.149-14.969,0-28.084-.094-40.094-.286-15.83-.259-28.652-.615-40.351-1.121a203.985,203.985,0,0,1-20.579-1.63c-.916-.134-1.839-.234-2.817-.34-3.515-.381-7.149-.775-10.084-2.76a4.479,4.479,0,0,1-3.056,1.334c-1.959,0-3.4-1.512-3.862-4.044q-2.735-15.123-5.468-30.229l-.856-4.732-.695,1.994c-1.048,3.011-2.133,6.124-3.212,9.2l-.186.531c-1.5,4.27-3.045,8.681-4.354,13.1-.975,3.325-2.3,7.123-4.755,10.08-2.75,3.309-6.268,4.849-11.07,4.849a49.261,49.261,0,0,1-8.5-1.014c-1.532-.273-2.978-.531-4.4-.706a143.66,143.66,0,0,0-17.46-1.083,128.44,128.44,0,0,0-26.679,2.743,151.09,151.09,0,0,0-22.759,6.84C24.348,723.645,20.319,725.016,16.414,725.016Zm2.435-21.576c.061.268.21.409.272.409a.023.023,0,0,0,.023-.015C19.163,703.786,19.078,703.646,18.849,703.44Zm-2.68-2.421c-.017,0-.021.01-.022.018a.625.625,0,0,0,.5.324l-.016-.013c-.043-.037-.084-.071-.119-.106C16.276,701.04,16.193,701.019,16.169,701.019Z" transform="translate(0 33)" fill="#c6a4bc"/>
      </g>
      <path id="_Ink-4" data-name="ðŸ– Ink" d="M7.957,621.239a2.3,2.3,0,0,1-.349-1.02h.12a2.856,2.856,0,0,1,.239,1.014A.011.011,0,0,1,7.957,621.239Zm-.349-1.02H5.361c-.2-.588-.789-.864-1.36-1.131-.758-.355-1.541-.721-1.474-1.813,0-.047.013-.125.024-.227l0-.018c.091-.836.332-3.058-.026-3.581a3,3,0,0,0-.7-.489c-.7-.42-1.659-1-1.682-1.632-.088-2.372-.063-3.85-.033-5.56.018-1.033.036-2.1.033-3.507,0-1.63-.008-3.309-.013-5.018v-.019C.114,591.444.1,585.471.145,579.786c0-.082,0-1.183,0-2.577v-.477c0-2.6,0-6.15,0-6.49C.2,563.965.139,559.366.079,554.919,0,549.1-.074,543.614.145,535.281c.24-9.12.383-17.323.522-25.255v-.016c.316-18.114.589-33.758,1.861-54.107,1.1-17.543,1.847-35.666,2.642-54.854,1.538-37.106,3.129-75.475,7.387-109.221C17.192,255.1,25.693,219.9,33.915,185.85l0-.014c2.473-10.239,5.029-20.827,7.411-31.184a390.03,390.03,0,0,1,19.06-59.423A433.978,433.978,0,0,1,84.643,45.114c5.747-10.09,11.831-15.3,18.273-20.823,2.1-1.8,4.276-3.664,6.483-5.736,1.172-1.1,2.328-2.279,3.446-3.418,3.281-3.344,6.38-6.5,9.95-7.963a9.321,9.321,0,0,0,4.285-3.762C128.173,1.885,129.2.442,131.745,0c.2,0,1.2,2.334,1.987,4.333a50.2,50.2,0,0,1,1.907,5.446.076.076,0,0,1,.057.043c.013.033,0,.084-.042.15,0,.019-.011.03-.021.032a77.068,77.068,0,0,1-6.49,5.819L122.8,22.046c-3.811,3.086-6.64,6.628-9.915,10.73-1.105,1.384-2.248,2.815-3.48,4.289-1.506,1.8-3.022,3.569-4.627,5.441l-.017.02c-4.123,4.808-8.387,9.781-12.431,15.3A106.653,106.653,0,0,0,81.267,76.376C73.648,92.945,66.4,110.851,59.713,129.6c-6.751,18.936-12.969,38.867-18.483,59.236-5.622,20.772-10.561,42.186-14.678,63.648C22.319,274.54,18.907,296.9,16.41,318.937c-1.494,13.183-2.414,28-2.813,45.288-.356,15.407-.274,31.294-.194,46.658v.014c.11,21.38.225,43.487-.845,64.475-.545,10.7-1.409,20.676-2.243,30.321-1.172,13.547-2.28,26.343-2.586,40.995-.132,6.811-.084,14.789-.037,22.505.033,5.428.063,10.555.037,15.33s-.017,10.428-.008,15.9v.36c0,2.03.006,3.951.007,5.751,0,1.119.05,1.954.094,2.69a19.871,19.871,0,0,1-.094,4.223,3.533,3.533,0,0,0,.127,2.056c.139.343.239.59-.127,1.771a6.252,6.252,0,0,0-.12,2.944Zm141.822-2.072a3.724,3.724,0,0,1-2.616-1.3l-.5-.495-.347-.341-.023-.023a13.953,13.953,0,0,1-3.717-5.055c-1.437-3.511-1.673-7.243-1.922-11.193l-.007-.1c-.283-4.488-.208-9.092-.136-13.544v-.019c.023-1.411.047-2.871.058-4.3.1-11.8.228-23.82.393-35.726.665-47.774,1.973-90.606,4-130.944,1.079-21.475,2.527-42.195,4.306-61.584l.357-3.832c.273-2.884.539-5.849.8-8.716l0-.024c.279-3.112.568-6.329.875-9.546a123.022,123.022,0,0,1-22.948-27.817,1.047,1.047,0,0,1-.018-1.041.587.587,0,0,1,.482-.341.557.557,0,0,1,.429.256,93,93,0,0,0,10.746,11.812,89.311,89.311,0,0,0,12.1,9.367c1.153-10.659,2.977-24.563,6.864-37.574a.832.832,0,0,1,.749-.635c.314,0,.543.237.613.635,1.949,11.074,2.247,22.631,2.535,33.808q.027,1.04.054,2.077c.271,10.334.322,21.667.161,35.665-.393,33.906-1.064,68.358-1.713,101.676l-.006.295c-.185,9.477-.376,19.276-.557,28.913-.361,19.228-.774,42.045-1.091,65.488-.111,8.151-.206,16.415-.283,24.563l-.1,10.8c-.043,4.3-.129,9.3-.608,14.26a24.038,24.038,0,0,1-2.326,8.818,11.315,11.315,0,0,1-2.841,3.37c-.271.245-.579.522-.874.8l-.253.247A3.794,3.794,0,0,1,149.43,618.147Zm417.528-23.673a10.93,10.93,0,0,1-2.1-.232c-1.926-.366-3.207-2.088-3.943-3.469a14.211,14.211,0,0,1-1.571-5.87c-.88-23.792-2.09-48.911-3.7-76.793-1.738-30.116-3.049-60.779-4.317-90.432-.641-15-1.3-30.516-2.016-45.793l-.744-15.868c-.726-15.607-1.522-33.753-1.769-51.618-.072-5.168-.013-10.414.044-15.488V288.9c.069-6.134.139-12.477-.02-18.712-.046-1.787-.108-3.627-.169-5.406-.306-9-.623-18.3.872-26.889a.394.394,0,0,1,.372-.347.325.325,0,0,1,.305.233,86.835,86.835,0,0,1,3.968,16.227c4.62-7.535,9.612-15.565,14.8-23.243a.485.485,0,0,1,.391-.25.556.556,0,0,1,.438.277.985.985,0,0,1,.105.9c-4.478,11.319-9.423,22.439-14.2,33.194.378,2.946.769,5.993,1.216,8.941.658,4.337,1.379,8.717,2.076,12.953,1.3,7.917,2.651,16.1,3.633,24.3,5.654,47.125,8.461,95.142,10.649,136.449,2.361,44.606,2.721,90.011,3.069,133.922l.027,3.451a12.133,12.133,0,0,1-1.555,5.879,6.646,6.646,0,0,1-3.96,3.461A8.091,8.091,0,0,1,566.958,594.473Zm73.842-8.4a5.269,5.269,0,0,1-2.776-.951,3.707,3.707,0,0,1-1.713-2.417c-.3-2.045-.4-4.184-.492-6.253v-.016c-.041-.888-.084-1.805-.141-2.7-.2-3.028-.377-6.072-.551-9.015l-.005-.09c-.141-2.376-.287-4.833-.439-7.249-.712-11.377-1.526-22.949-2.42-34.4-1.2-15.322-2.892-30.636-4.531-45.445l0-.021c-.784-7.079-1.594-14.4-2.344-21.671-1.517-14.691-7.337-43.778-14.077-77.457v-.007q-3.342-16.7-6.85-34.48c-5.107-26.069-10.063-53.8-14.045-76.084l-.007-.038c-3.834-21.455-6.862-38.4-8.813-47.314-1.589-7.713-3.692-17.252-5.918-27.352-5.272-23.915-11.247-51.018-14.4-71.468-.853-5.523-1.613-10.863-2.349-16.027l-.006-.043c-2.795-19.626-5.208-36.576-10.877-51.14a74.136,74.136,0,0,0-11.391-20.035,74.442,74.442,0,0,0-18.973-16.483c-.023-.014-.033-.028-.029-.042a18.5,18.5,0,0,1,4.117-.233,34.681,34.681,0,0,1,5.64.275c3.308,1.735,6.754,5.164,10.243,10.191a118.126,118.126,0,0,1,10,18.352c5.955,13.176,12.211,30.926,18.594,52.758,11.548,39.5,21.145,84.09,26.879,110.734l.008.035c1.334,6.2,2.486,11.549,3.4,15.606,5.095,22.738,6.849,41.3,8.706,60.956,1.4,14.786,2.842,30.071,5.825,47.685.3,1.76,29.779,176.2,31.333,196.9.374,4.987,1.278,10.187,2.151,15.216a150.759,150.759,0,0,1,2.227,16.271c.126,2.056,1.434,3.692,2.7,5.273s2.593,3.242,2.7,5.318l-9.772,11.428a1.29,1.29,0,0,1-.321.989A1.7,1.7,0,0,1,640.8,586.072Z" transform="translate(7889.968 7451.879)"/>
    </g>
    <path id="Path" d="M59.2,66.309a18.642,18.642,0,0,1-3.864,2.415c-10.689,1.909-21.77-5.047-28.517-10.111-6.987-5.244-9.374-11.436-12.808-17.254l-.124-.21A185.58,185.58,0,0,1,4.314,22.33,144.448,144.448,0,0,1-2.636,3.071C-3.542-.118-4.35-3.313-4.981-6.514c-.315-1.6-2.845-8.317-3.1-9.918-.1-.641-.656-2.657-.739-3.3l-1.114-4.784c-.051-.436-.457-1.87-.2-2.3.218-.371.062-3.56.468-3.9.8-.673,1.526-1.336,2.391-.774l-1.154,7.4c.573.377-1.093-6.581-.913-6.111s4.386-3.968,5.608-4.224c.293,1.78,5.355,27.2,5.719,28.975C2.7-1.94,3.47,1.566,4.419,5.064,6.1,11.282,9.2,17.11,11.691,23.279a205.262,205.262,0,0,0,9.394,18.937v-.368C26.708,52.248,35.778,60.751,59.2,66.309Z" transform="matrix(0.53, -0.848, 0.848, 0.53, 5412.92, 7072.044)"/>
    <g id="zoom-seeklogo.com-1" transform="translate(6821.9 7424.9)">
      <path id="Path_130" data-name="Path 130" d="M187.7-64.8h-.1a94.85,94.85,0,1,0,.1,0ZM227.8,70.3a56.922,56.922,0,1,1,0-80.6l.1.1A56.8,56.8,0,0,1,227.8,70.3Z" transform="translate(-1130 -1363)" fill="#4a8cff"/>
      <path id="Path_131" data-name="Path 131" d="M73.8,87.5,64.3,87H-21.1L92.8-26.9l-.5-9.5a28.755,28.755,0,0,0-28-28l-9.5-.5H-87.5l.5,9.5a29.408,29.408,0,0,0,28,28l9.5.5H35.9L-78,87l.5,9.5a29.04,29.04,0,0,0,28,28l9.5.5H102.3l-.5-9.5C100.5,99.8,89.4,88.4,73.8,87.5Z" transform="translate(-1130 -1363)" fill="#4a8cff"/>
      <path id="Path_133" data-name="Path 133" d="M681.1-64.8a75.942,75.942,0,0,0-56.9,25.7,75.854,75.854,0,0,0-99.4-12.7c-7.3-8.3-23.9-13-33.4-13V125l9.5-.5c15.8-1,27.4-12.2,28-28l.5-9.5V20.6l.5-9.5a42.033,42.033,0,0,1,4.7-19,37.871,37.871,0,0,1,51.8-13.8A38.042,38.042,0,0,1,600.2-7.9h-.1a40.785,40.785,0,0,1,4.7,19l.5,9.5V87l.5,9.5a29.1,29.1,0,0,0,27.9,28l9.5.5V20.6l.5-9.5A40.885,40.885,0,0,1,648.4-8a37.916,37.916,0,0,1,51.9-13.7A38.042,38.042,0,0,1,714.1-7.9a41.93,41.93,0,0,1,4.6,19l.5,9.5V87l.5,9.5a29.022,29.022,0,0,0,27.9,28l9.5.5V11.1A76.073,76.073,0,0,0,681.1-64.8Z" transform="translate(-1130 -1363)" fill="#4a8cff"/>
      <path id="Path_134" data-name="Path 134" d="M454-37a94.858,94.858,0,1,0,.1,134.1A94.833,94.833,0,0,0,454-37ZM427.1,70.3a56.922,56.922,0,1,1,0-80.6l.1.1A56.8,56.8,0,0,1,427.1,70.3Z" transform="translate(-1130 -1363)" fill="#4a8cff"/>
      <g id="Group_10" data-name="Group 10" transform="translate(-1130 -1363)">
        <g id="Group_9" data-name="Group 9" clip-path="url(#clip-path)">
          <path id="Path_136" data-name="Path 136" d="M-649.8-223.8h507.7V283.9H-649.8Z" fill="#e5e5e4"/>
        </g>
      </g>
      <g id="Group_12" data-name="Group 12" transform="translate(-1130 -1363)">
        <g id="Group_17" data-name="Group 17">
          <path id="Path_137" data-name="Path 137" d="M-146.8,279.2h0Z" fill="#fff"/>
        </g>
      </g>
      <g id="Group_14" data-name="Group 14" transform="translate(-1130 -1363)">
        <g id="Group_13" data-name="Group 13" clip-path="url(#clip-path-2)">
          <path id="Path_138" data-name="Path 138" d="M-626-200h460.2V260.2H-626Z" fill="#4a8cff"/>
        </g>
      </g>
      <g id="Group_16" data-name="Group 16" transform="translate(-1130 -1363)">
        <g id="Group_15" data-name="Group 15" clip-path="url(#clip-path-3)">
          <path id="Path_139" data-name="Path 139" d="M-550.1-57.7h303.7V117.8H-550.1Z" fill="#fff"/>
        </g>
      </g>
    </g>
    <g id="Group_18" data-name="Group 18">
      <g id="slack-technologies-seeklogo.com" transform="translate(5934.8 7069.1)">
        <path id="Path_141" data-name="Path 141" d="M208.7,491.949l15.407-36.091c16.885,12.452,38.835,19,60.785,19,16.04,0,26.382-6.332,26.382-15.829-.422-26.382-97.086-5.91-97.931-72.393-.422-33.769,29.759-59.94,72.182-59.94,25.327,0,50.654,6.332,68.594,20.473l-14.352,36.724c-16.462-10.553-36.935-17.94-56.352-17.94-13.3,0-21.95,6.332-21.95,14.352.422,26.171,97.931,11.819,98.986,75.348,0,34.613-29.337,58.674-71.126,58.674-30.814.422-59.1-6.965-80.624-22.372m613.122-48.965a44.744,44.744,0,1,1,0-43.9l42.845-23.849a93.921,93.921,0,1,0,0,91.6ZM388.31,510.944h53.609V248.811H388.31ZM891.682,248.811V510.944H945.29V432.431l63.528,78.513H1077.2l-80.624-93.287,74.714-87.167h-65.428L945.29,402.883V248.6H891.682ZM606.754,330.7v21.317c-8.864-14.774-30.392-24.9-53.186-24.9-46.855,0-84,41.578-84,93.709s36.935,94.132,84,94.132c22.794,0,44.322-10.342,53.186-24.9v21.317h53.609V330.912H606.754Zm0,112.494c-7.6,12.875-23.849,22.372-41.789,22.372a44.744,44.744,0,0,1,0-89.488c17.94,0,34.191,9.92,41.789,23.216Z" transform="translate(209.343 2.999)"/>
        <path id="Path_142" data-name="Path 142" d="M135.226,246a31.448,31.448,0,1,0,0,62.9h31.448V277.448A31.391,31.391,0,0,0,135.226,246m0,83.79H51.648a31.448,31.448,0,1,0,0,62.9h83.79a31.448,31.448,0,1,0-.211-62.9" transform="translate(0 0.111)" fill="#36c5f0"/>
        <path id="Path_143" data-name="Path 143" d="M246.185,361.348a31.448,31.448,0,0,0-62.9,0V392.8h31.448a31.257,31.257,0,0,0,31.448-31.448m-83.79,0v-84a31.448,31.448,0,1,0-62.9,0v84A31.526,31.526,0,0,0,130.948,392.8,31.126,31.126,0,0,0,162.4,361.348" transform="translate(88.069 0)" fill="#2eb67d"/>
        <path id="Path_144" data-name="Path 144" d="M130.948,472.4a31.448,31.448,0,1,0,0-62.9H99.5v31.448A31.526,31.526,0,0,0,130.948,472.4m0-84h83.79a31.448,31.448,0,1,0,0-62.9h-83.79a31.448,31.448,0,1,0,0,62.9h0" transform="translate(88.069 88.402)" fill="#ecb22e"/>
        <path id="Path_145" data-name="Path 145" d="M20.2,356.948A31.526,31.526,0,0,0,51.648,388.4h0A31.526,31.526,0,0,0,83.1,356.948V325.5H51.648A31.391,31.391,0,0,0,20.2,356.948m83.79,0v84a31.448,31.448,0,1,0,62.9,0v-84A31.526,31.526,0,0,0,135.437,325.5h0a31.391,31.391,0,0,0-31.448,31.448" transform="translate(0 88.402)" fill="#e01e5a"/>
      </g>
    </g>
    <g id="icons8-gmail" transform="translate(8245 6676.5)">
      <path id="Path_146" data-name="Path 146" d="M46.917,431H521.75a44.917,44.917,0,0,0,44.917-44.917V52.417A44.917,44.917,0,0,0,521.75,7.5H46.917A44.917,44.917,0,0,0,2,52.417V386.083A44.917,44.917,0,0,0,46.917,431Z" fill="#e0e0e0"/>
      <path id="Path_147" data-name="Path 147" d="M310,431H521.75a44.917,44.917,0,0,0,44.917-44.917V52.417A44.917,44.917,0,0,0,521.75,7.5H46.917A44.917,44.917,0,0,0,2,52.417Z" fill="#d9d9d9"/>
      <path id="Path_148" data-name="Path 148" d="M6.745,383.667H465.6a44.917,44.917,0,0,0,44.917-44.917V11.5Z" transform="translate(56.149 47.333)" fill="#eee"/>
      <path id="Path_149" data-name="Path 149" d="M108.271,383.667H323.293A44.917,44.917,0,0,0,368.21,338.75V11.5L18.771,269.655Z" transform="translate(198.457 47.333)" fill="#e0e0e0"/>
      <path id="Path_150" data-name="Path 150" d="M521.75,9.99H46.917C22.11,9.99,2,4.434,2,29.24V362.907a44.917,44.917,0,0,0,44.917,44.917h19.25V42.074H502.5v365.75h19.25a44.917,44.917,0,0,0,44.917-44.917V29.24C566.667,4.434,546.557,9.99,521.75,9.99Z" transform="translate(0 23.176)" fill="#ca3737"/>
      <path id="Path_151" data-name="Path 151" d="M521.75,7.5H46.917A44.664,44.664,0,0,0,2,52.417C2,67.894,21.481,81.394,21.481,81.394L284.333,267.452,547.186,81.407s19.481-13.513,19.481-28.978A44.667,44.667,0,0,0,521.75,7.5Z" fill="#f5f5f5"/>
      <path id="Path_152" data-name="Path 152" d="M531.324,7.582l-246.99,172.2L37.343,7.582A44.58,44.58,0,0,0,2,51.446C2,66.923,21.481,80.424,21.481,80.424L284.333,266.482,547.186,80.437s19.481-13.513,19.481-28.978A44.584,44.584,0,0,0,531.324,7.582Z" transform="translate(0 0.97)" fill="#e84f4b"/>
    </g>
    <g id="Group_19" data-name="Group 19" transform="translate(326 -439)">
      <g id="Rectangle_10" data-name="Rectangle 10" transform="translate(6701 6198)" fill="#fff" stroke="#707070" stroke-width="1">
        <rect width="1068" height="550" stroke="none"/>
        <rect x="0.5" y="0.5" width="1067" height="549" fill="none"/>
      </g>
      <path id="Computer" d="M2335.407,383H1374.761c-46.618,0-84.763,39.723-84.763,88.272v617.906c0,48.55,38.145,88.276,84.763,88.276h326.321v62.229c-.988,6.032-17.659,29.4-23.733,37.639-14.976,20.447-40.674,32.541-29.795,55.491,4.662,9.707,15.118,21.186,38.712,21.186h323.506c13.988,0,34.224-.2,45.387-26.674,10.881-25.9-13.737-39.678-30.55-58.8-5.932-6.767-12.437-24.277-14.837-29.574v-61.5h325.635c46.616,0,84.76-39.726,84.76-88.276V471.272C2420.168,422.723,2382.023,383,2335.407,383Zm-649.853,935.685c12.009-16.769,56.514-58.843,56.514-79v-62.229H1968.1v62.229c0,21.188,42.526,62.82,56.511,79Zm697.766-229.506c0,15.893-32.659,52.544-47.913,52.544H1374.761c-15.257,0-42.688-36.651-42.688-52.544v-88.27H2383.321Zm0-129.778H1332.073V471.272c0-15.892,27.431-29.424,42.688-29.424h960.646c15.255,0,47.913,13.532,47.913,29.424Z" transform="translate(5372.97 5769)"/>
    </g>
    <ellipse id="Ellipse_13" data-name="Ellipse 13" cx="269.5" cy="252.5" rx="269.5" ry="252.5" transform="translate(7285 5783)" fill="rgba(0,156,203,0.55)"/>
    <path id="_Skin-3" data-name="âœ‹ Skin" d="M120.919,253.688c13.24,16.987,15.643,46.146,21.135,68.66,3.026,12.4,32.676,23.673,61.438,21.909,23.438-1.438,47.06-13.927,48.884-21.909,4.063-17.777-2.247-84.921,19.242-96.612S107.679,236.7,120.919,253.688Z" transform="translate(7738.15 6485.439) rotate(180)" fill="#d08b5b"/>
    <g id="head_Bun" data-name="head/Bun" transform="translate(7265.499 5728)">
      <path id="_Skin-4" data-name="âœ‹ Skin" d="M205.162,14.838C160.037,12.375,120.057-.3,88.293,28.072c0,0-51.386-38.374-59.96-23.759-5.745,9.793,2.222,22.94.086,35.025-13.93,23.747-13.142,63.941-13.93,73.36C12.5,136.44,0,225.779,0,246.994c0,10.829,8.928,39.19,14.489,54.974C26.865,337.1,50.489,355,89.231,355s101.978-32.381,122.258-61.131c1.777-2.52,13.271,4.831,25.293-7.92,13.024-13.814,20.249-40.161,20.249-55.866,0-19.93,12.88-33.751,11.382-59.262C265.067,113.85,253.448,17.474,205.162,14.838Z" transform="translate(134.254 130.492)" fill="#d08b5b"/>
      <path id="bandana" d="M10.4,4.031c-5.745,9.793,2.222,22.94.086,35.025C5.112,48.22,1.928,59.833,0,71.181l10.533,5.59,3.9.572q94.794,13.976,121,25.155,26.475,11.294,64.261,79.332l.764,1.38,4.992,33.852,22.884,7.019,10.771,5.105c.261-19.6,12.861-33.4,11.378-58.646-3.346-56.973-14.965-153.349-63.251-155.985C142.106,12.093,102.126-.586,70.362,27.79Q18.976-10.584,10.4,4.031Z" transform="translate(152.139 130.636)" fill="#9fd8e5"/>
      <g id="Group_8" data-name="Group 8" transform="translate(128 79.076)">
        <path id="_Ink-5" data-name="ðŸ– Ink" d="M218,0A73.786,73.786,0,0,0,205.5,1.078a68.668,68.668,0,0,0-13.979,3.358,105.519,105.519,0,0,0-10.656,4.533,41.322,41.322,0,0,0-5.192,2.994,57.609,57.609,0,0,0-7.842,6.123c-.846.724-1.607,1.412-2.327,2.1a.5.5,0,0,0-.178.5.592.592,0,0,0,.436.421l.129.015-.153.139-.005,0c-.113.1-.229.206-.342.315a.581.581,0,0,0-.093.1l-.072.064-.014.012c-.052.046-.1.092-.151.138a.375.375,0,0,0-.113.342.832.832,0,0,0,.356.575.5.5,0,0,0,.237.049,1.136,1.136,0,0,0,.114-.006l-.01.01a.554.554,0,0,1-.069.061c-.031.024-.035.086-.028.137l-.108.085a.508.508,0,0,0-.183.5.6.6,0,0,0,.433.421.988.988,0,0,0,.279.033,3.131,3.131,0,0,0,.638-.081l.136-.032-.244.229a.562.562,0,0,0-.245.538.59.59,0,0,0,.481.378,6.5,6.5,0,0,0,1.172-.171l.289-.079c.124-.031.241-.067.366-.1l.006,0,.051-.016-.262.238c-.153.138-.31.279-.461.422a.368.368,0,0,0-.092.319.9.9,0,0,0,.321.6.516.516,0,0,0,.253.056,1.726,1.726,0,0,0,.879-.314,4.2,4.2,0,0,0,1.826-.63c.789-.757,1.663-1.542,2.671-2.4a4.117,4.117,0,0,0,1.475-.745c.934-.9,1.981-1.818,3.2-2.821l.833-.574c.133-.089.276-.185.42-.278l1.755-1.027c.92-.538,1.963-1.147,2.964-1.737l1.9-.642c5.01-1.7,10.19-3.452,15.347-5.194l.759-.229,5.578-.687A50,50,0,0,1,219,9.177c.165,0,.33,0,.491,0a37.75,37.75,0,0,1,7.673.8,76.3,76.3,0,0,1,13.391,3.5A99.313,99.313,0,0,1,255,20.3c1.667.934,3.329,1.939,4.941,2.986.5.357,1.029.74,1.568,1.139,3.35,2.514,6.684,5.292,9.911,8.257,1.451,1.332,2.9,2.768,4.3,4.267l.083.09.015.016c.168.181.327.352.489.532,1.36,1.485,2.649,3,3.831,4.49l1.167,1.317a150.239,150.239,0,0,1,12.668,18.67,117.563,117.563,0,0,1,9.266,20.223c.8,2.531,1.487,5.087,2.048,7.6a41.915,41.915,0,0,1,2.077,9.459c.1.611.189,1.232.272,1.832l.008.06.049.993c.008.193.013.35.015.5.151,1.06.268,2.044.358,3.008.061,1.07.094,2.061.1,3.029l-.079,6.194c-.021.187-.043.389-.057.594l-.158,1.367c-.172,1.412-.326,2.846-.476,4.233s-.3,2.826-.476,4.239a.182.182,0,0,1-.007.058c-.115.934-.255,2.041-.423,3.172-.059.469-.13.941-.2,1.4q-.037.246-.074.493l-.179,1.1c-.34,1.963-.752,3.882-1.225,5.7l-.215.806-1.247,6.266-1.4,6.166c-.911,4.141-1.675,8.343-2.27,12.489-1.054,6.478-1.98,13.056-2.829,20.108-.046.348-.087.661-.121.974-.807,6.11-1.414,12.427-1.805,18.776-.52,6.154-.823,12.41-.9,18.6a.734.734,0,0,0,.4.638l-.02,1.194a2.561,2.561,0,0,1-.026.461s0-.008-.007-.017,0-.017-.006-.017a4.2,4.2,0,0,0-.015.565l-.014,3.311c0,.288,0,.469.009.482-1.2-.083-2.344-.123-3.494-.123-1.738,0-3.334.089-5.181.192l-.027,0-1.391.076-.626.032a85.506,85.506,0,0,0-10.1,1.089.36.36,0,0,0-.322-.329c-.221-.009-.437-.012-.645-.016h-.015l-.334-.006.122-.465a.409.409,0,0,0-.329-.451l-.955-.043c-.444-.019-1.028-.04-1.608-.04a16.462,16.462,0,0,0-2.213.133,23.068,23.068,0,0,0-3.351.731,19.476,19.476,0,0,0-2.084.472c-1,.287-2.01.634-2.988.969l-.006,0c-.8.275-1.634.56-2.456.812a14.922,14.922,0,0,1-3.11.354,11.125,11.125,0,0,1-2.618-.3c-.5-.119-.993-.262-1.466-.4a11.265,11.265,0,0,0-3.193-.614,5.7,5.7,0,0,0-1.392.17,9.207,9.207,0,0,0-1.282.444l-.391.027c-.06.006-.13.013-.2.023a14.373,14.373,0,0,0-4.09,1.491A24.578,24.578,0,0,1,236.2,233.4a3.746,3.746,0,0,1-.884.109,3.533,3.533,0,0,1-1.366-.278l-.184-.082-.723-.538c-.274-.322-.557-.662-.864-1.038l-.425-.523a10.625,10.625,0,0,0-2.621-2.463,6.561,6.561,0,0,0-4.39-1.826l-.184,0a8.879,8.879,0,0,0-2.716.482,20.561,20.561,0,0,0-6.069-.951,16.85,16.85,0,0,0-4.873.7,15.875,15.875,0,0,0-4.118,1.19,16.78,16.78,0,0,0-1.848.974c-1.654-.7-3.273-1.56-4.839-2.394l0,0h0c-.81-.431-1.647-.877-2.476-1.293l-.547-.275c-2.213-1.1-4.8-2.278-7.468-2.278-.19,0-.38.006-.565.018a99.065,99.065,0,0,0-10.476,1.3.416.416,0,0,0-.094.014l-.477.08-1.734.3-1.4.26-.714-.273a55.066,55.066,0,0,0-6.482-2.062,27.943,27.943,0,0,0-6.609-.867,18.493,18.493,0,0,0-4.706.582,15.762,15.762,0,0,0-7,2.592c-.076.053-.145.1-.215.157a6.6,6.6,0,0,0-.931.572l-.06.047-.055.047-.028.014a8.007,8.007,0,0,0-3.614,3.236,7.928,7.928,0,0,0-1.02,4.741,9.108,9.108,0,0,0,.028,3.315c-.97-1.146-1.994-2.321-3.129-3.594-4.667-5.619-8.118-10.056-11.189-14.385l-.806-1.148c-1.912-2.7-3.726-5.542-5.392-8.456-1.782-3.04-3.48-5.828-5.192-8.522-2.332-2.578-4.593-5.227-6.72-7.874l-.92-1.156L107,187.761a38.383,38.383,0,0,1-5.464-8.55c-1.21-2.251-2.3-4.518-3.252-6.74-.274-.6-.563-1.269-.909-2.1a69.157,69.157,0,0,1-2.528-8.422A44.739,44.739,0,0,1,93.7,155.6l-.07-.717c-.091-.893-.152-1.722-.186-2.534a2.853,2.853,0,0,0,.508-.365l.523-.187.423-.125c.887-.275,1.419-.573,1.539-.86a.327.327,0,0,0-.014-.288l-1.382-2.636c.162-.171.2-.324.115-.48-.936-1.79-1.89-3.6-2.786-5.306a.378.378,0,0,0-.128-.15,24.962,24.962,0,0,0,2.305-1.2,13.441,13.441,0,0,0,3.48-3.015,21.975,21.975,0,0,0,2.922-2.062,21.906,21.906,0,0,0,2.957-3.9,22.726,22.726,0,0,0,1.891-4.175,8.513,8.513,0,0,0,.308-2.37,4.064,4.064,0,0,0-1.2-2.587,3.065,3.065,0,0,0-2.077-.7,7.747,7.747,0,0,0-3.151.831,4.29,4.29,0,0,0-1.572,1.068,22.945,22.945,0,0,1-1.7,4.744,18.39,18.39,0,0,1-2.839,4.035l-.064.043c-1.4.615-2.842,1.251-4.332,1.74-.163-.031-.333-.056-.5-.08l-.028,0-.155-.023a.515.515,0,0,0,.1-.5.574.574,0,0,0-.491-.283,24.485,24.485,0,0,0-4.725-.461c-.695,0-1.4.03-2.1.089l-3.48.493a22.056,22.056,0,0,1-4.124-2.111l-.43-.287-.079-.057a27.814,27.814,0,0,1-7.727-10.2c-.165-.366-.313-.711-.453-1.055l-.213-.535-.014-.028a34.342,34.342,0,0,1-.465-14.017,45.822,45.822,0,0,1,4.454-13.382c2.321-3.715,4.759-7.379,7.247-10.892l2.449-3.2c1.467-1.379,2.9-2.789,4.247-4.189.187-.188.4-.39.673-.637a18.328,18.328,0,0,1,2.234-1.261c.312-.106.613-.2.9-.273a11.286,11.286,0,0,1,4.605-1.117c.382-.025.768-.038,1.147-.038a16.653,16.653,0,0,1,5.042.781l.4.132.293.107a16.16,16.16,0,0,1,3.058,2.578.708.708,0,0,0,.53.182,2.157,2.157,0,0,0,.544-.082c.3.3.531.566.738.824a.44.44,0,0,0,.328.144.528.528,0,0,0,.3-.094.683.683,0,0,0,.077,0,2.984,2.984,0,0,0,2-1.144.328.328,0,0,0-.037-.378,2.644,2.644,0,0,0-.162-.227c-.033-.043-.07-.091-.1-.138a8.95,8.95,0,0,0,.931-.545,7.728,7.728,0,0,0,3.517-2.176.24.24,0,0,0,.028-.193l-.022-.036a5.115,5.115,0,0,0-1.357-1.649l-.19-.142L107.72,68c.566-.355.871-.652.907-.881a.268.268,0,0,0-.062-.221,4.721,4.721,0,0,0-.38-.631c1.086-1.342,2.24-2.785,3.63-4.539a36.585,36.585,0,0,1,4.469-7.3,31.413,31.413,0,0,1,5.349-6.61c.116-.117.238-.232.355-.343l.013-.013.154-.146c1.462-1.08,3.037-2.133,4.814-3.217l.721-.434.115-.068.008,0c.384-.222.862-.5.593-.994a.551.551,0,0,0-.129-.172c1.076-.7,2.175-1.357,3.265-1.941l.107-.066c.3-.191.655-.479.657-.77a.484.484,0,0,0-.263-.395.507.507,0,0,0-.286-.075,5.6,5.6,0,0,0-2.192,1.058l-.05.033a1.524,1.524,0,0,0-.408.078c.151-.08.3-.167.45-.25l.191-.109.325-.178c.039-.023.956-.575.922-1-.01-.13-.111-.235-.3-.31-.052,0-.1-.006-.154-.006a1.782,1.782,0,0,0-1.014.322c-.406.2-.825.422-1.246.659a.4.4,0,0,0,.077-.336.454.454,0,0,0-.292-.253l-.1,0a2.234,2.234,0,0,0-.269.017c.828-.527,1.681-1.021,2.606-1.511l.145-.09c.442-.287.676-.548.695-.777a.4.4,0,0,0-.152-.336.513.513,0,0,0-.354-.117,4.179,4.179,0,0,0-1.726.754l-.126.079-1.046.623a.8.8,0,0,0-.258-.058c.131-.08.263-.166.38-.242.178-.116.361-.235.551-.344l.438-.238c.414-.229.978-.578,1.086-.958a.433.433,0,0,0-.042-.342.467.467,0,0,0-.439-.23,2.691,2.691,0,0,0-1.216.462l-.58.36-.013.008-.064.037-.023-.086a.175.175,0,0,0-.021-.043.475.475,0,0,0-.443-.242,2.1,2.1,0,0,0-.967.351l-.373.228c-.676.407-1.285.774-1.888,1.143l-.934.575h-.014a58.526,58.526,0,0,0-9.03,6.366,54.607,54.607,0,0,0-4.741,4.749,59.064,59.064,0,0,0-7.369,11.17c-.033.059,0,.208.1.409-.218.45-.446.938-.695,1.49a20.437,20.437,0,0,0-5.417-.7c-.507,0-1.019.017-1.522.05a18.391,18.391,0,0,0-3.616.617,26.4,26.4,0,0,0-10.677,4.354c-.12.077-.233.16-.342.24-.069.051-.147.108-.223.16a25.32,25.32,0,0,0-3.738,2.579,61.92,61.92,0,0,0-6.5,6.238c-1.449,1.721-2.827,3.521-4.1,5.349-1.149,1.61-2.328,3.244-3.467,4.825l-.471.654a47.4,47.4,0,0,0-6.911,19.062,38.5,38.5,0,0,0-.623,7.505,32.416,32.416,0,0,0,.587,5.471l-.116.113c-.167.162-.339.328-.507.5-.11-.193-.2-.29-.258-.29a.059.059,0,0,0-.042.019l-1.642,1.643a26.424,26.424,0,0,0-3.286,3.935,38.334,38.334,0,0,0-4.905,9.867,34.562,34.562,0,0,0-1.64,8.113c-.07.446-.143.921-.2,1.4a39.561,39.561,0,0,0,.53,10.986.587.587,0,0,0,.322.472c.036.254.079.517.12.77l.019.119a31.651,31.651,0,0,0-5.822,8.333,21.786,21.786,0,0,0-2.056,10.049,18.833,18.833,0,0,0,1.462,6.693l.11.239a11.685,11.685,0,0,0-5.33,2.354,19.311,19.311,0,0,0-4.13,4.483c-.206.163-.41.33-.606.5-3.8,3.246-6.878,7.988-9.147,14.1a32.96,32.96,0,0,0-2.788,9.943c-.02.175-.035.351-.049.522v.005c-.006.071-.012.141-.018.212a63.8,63.8,0,0,0-.777,16.482,81.681,81.681,0,0,0-2.331,10.333c-.234,1.52-.421,3.164-.572,5.027l-.015.092-.021.3-.061.751c-.01.124-.018.25-.025.373a81.038,81.038,0,0,0-.075,11.449,92.194,92.194,0,0,0,1.44,11.3,119.5,119.5,0,0,0,6.526,21.9c.508,1.313,1.023,2.6,1.531,3.817l.558,1.321c4.14,6.676,9.838,12.473,15.349,18.079,2.044,2.079,4.157,4.229,6.133,6.369a2.732,2.732,0,0,1,.538,3.057,3.09,3.09,0,0,1-2.688,1.892,2.567,2.567,0,0,1-1.9-.9c-1.907-2.066-3.9-4.132-5.834-6.13l0,0c-2.942-3.045-5.983-6.193-8.794-9.424-.574-.042-1.1-.062-1.609-.062-.293,0-.582.007-.86.021a19.733,19.733,0,0,0-4.168.666,20.988,20.988,0,0,0-9.2,3.839,14.03,14.03,0,0,0-4.877,3.681,9.759,9.759,0,0,0-2.326,5.578,8.327,8.327,0,0,0,0,1.274,11.2,11.2,0,0,0,.838,6.281,10.907,10.907,0,0,0,.587,1.633,10.6,10.6,0,0,0,3.3,4.168l.027.015,0,0a.449.449,0,0,1,.062.04l.093.1c.115.121.235.247.365.36a8.17,8.17,0,0,0,.773.623A39.261,39.261,0,0,0,3.6,342.827a20.254,20.254,0,0,0-1.453,5.837,23.883,23.883,0,0,0-.143,2.391c-.041.351-.069.7-.1,1.11a19.549,19.549,0,0,0,1.21,8.429c.052.131.111.26.175.4.033.071.066.141.1.212a17.025,17.025,0,0,0,.695,1.79A16.866,16.866,0,0,0,8.5,368.729a18.367,18.367,0,0,0,3.351,2.664,13.911,13.911,0,0,0,2.414,1.181,13.462,13.462,0,0,0,5.142,1.618l.085,0c.079,0,.157,0,.233-.008s.155-.008.233-.008c.188,5.161.943,9.188,2.306,12.311a18.067,18.067,0,0,0,1.8,3.777,12.749,12.749,0,0,0,2.694,3.048,12.068,12.068,0,0,0,4.666,3.027l.34.117.129.035a12.25,12.25,0,0,0,5.392,1.153h.065c.237.012.478.019.716.019a12.207,12.207,0,0,0,5.678-1.335,12.487,12.487,0,0,0,1.239-.766,20.942,20.942,0,0,0,1.046,1.861,27.708,27.708,0,0,0,4.984,5.895c.153.138.318.27.478.4.077.061.163.129.245.2a29.2,29.2,0,0,0,2.965,2.356,24.765,24.765,0,0,0,7.233,3.445,24.136,24.136,0,0,0,8.39,1.509c.271,0,.546,0,.817-.014l.646-.027c.135-.013.269-.02.4-.026h.024a30.359,30.359,0,0,0,9.08-2.106,27.414,27.414,0,0,0,7.977-5.084,13.142,13.142,0,0,0,1.977,2.191c.145.126.3.244.444.358.081.063.159.124.236.186.156.157.327.316.537.5a17.4,17.4,0,0,0,2.743,1.984,12.352,12.352,0,0,0,3.545,1.381,15.162,15.162,0,0,0,3.931.782c.172.01.352.016.534.016.377,0,.783-.022,1.241-.067a12.938,12.938,0,0,0,1.955-.222,15.721,15.721,0,0,0,8.564-4.861,1.525,1.525,0,0,0,.1-.12c.022-.027.045-.055.068-.081a22.2,22.2,0,0,0,2.965-2.7l.162.156,0,0c.1.1.2.194.306.291.473.415.971.813,1.482,1.181a19.336,19.336,0,0,0,7.412,3.96l.373.1a2.168,2.168,0,0,0,.214.05,18.82,18.82,0,0,0,5.957.967h.059c.2.006.4.01.6.01a17.214,17.214,0,0,0,6.6-1.277,20.269,20.269,0,0,0,7.061-5.035,36.611,36.611,0,0,0,3.645-3.509,26.73,26.73,0,0,0,5.686-9.188c.159-.445.309-.925.458-1.467,3.139.363,6.206.607,9.116.724,2.4.145,4.733.219,6.948.219,1.114,0,2.226-.018,3.306-.055a95,95,0,0,0,27.585-5.013A32.458,32.458,0,0,0,210.3,383.4a37.853,37.853,0,0,0,7.455-3.989l1.995-1.183c.9-.533,1.952-1.166,2.975-1.817a58.467,58.467,0,0,0,6.581-4.934,71.011,71.011,0,0,0,6.23-5.715c.479-.489.974-1.015,1.56-1.657a53.3,53.3,0,0,0,12.333-9.327,87.306,87.306,0,0,0,20.165,8.513,70.68,70.68,0,0,0,9.252,1.9c1.295.224,2.686.42,4.254.6l-.057-.023c.938.1,1.894.192,3.008.287l-.029.007.2.016c.36.029.732.06,1.1.084l1.045.086h.018c.324,0,.757-.725.784-.967l.036-.265c.146-.165.283-.339.4-.492.069-.088.14-.178.2-.247.19.015.376.029.558.037l.04,0c.445,0,.946-.639,1.278-1.062.078-.1.152-.194.214-.265l.3-.35a2.81,2.81,0,0,0,.733-1.39c.377-3.068.722-6.073,1.024-8.93a30.525,30.525,0,0,0-.373-6.7c-.291-2.244-.594-4.513-.852-6.438-.451-1.482-.9-2.966-1.327-4.4l-.033-.111c-.138-.441-.29-.884-.438-1.312l-.135-.393a91.409,91.409,0,0,0-4.087-11.02,50.4,50.4,0,0,0,3.266-4.009l.065-.067c.217-.223.441-.452.648-.686a.705.705,0,0,0,.258.244.6.6,0,0,0,.24.055.73.73,0,0,0,.569-.378,19.229,19.229,0,0,0,4.912-7.54l.634-1.5c.121-.287.22-.526.312-.752a52.662,52.662,0,0,0,1.948-6.674,40.292,40.292,0,0,0,1.005-5.409c1.618-5.432,2.874-10.978,3.924-15.75a3.563,3.563,0,0,0-.168-2.189l.674-.657,1.153-1.148a36.531,36.531,0,0,0,5.349-6.257,55.213,55.213,0,0,0,3.017-5.805c.256-.545.52-1.106.785-1.657l.262-.537.536-1.077a26.68,26.68,0,0,0,1.371-3.248,28.4,28.4,0,0,0,1.526-7.269,31.432,31.432,0,0,0,.054-5.62,15.947,15.947,0,0,0-1.386-5.428.221.221,0,0,0-.035-.072,14.8,14.8,0,0,0-1.885-4.645,12.636,12.636,0,0,0-3.393-3.641,10.608,10.608,0,0,0-1.891-1.439,5.686,5.686,0,0,0-2.982-.85,7.762,7.762,0,0,0-1.881.255l-.222.058c-.25.065-.44.111-.616.15.2-.161.286-.309.269-.438-.014-.108-.1-.2-.269-.278a3.649,3.649,0,0,0-1.139-.358.375.375,0,0,0,.1-.3.438.438,0,0,0-.248-.27,3.017,3.017,0,0,0-1.425-.414,2.239,2.239,0,0,0-.394.035l.121-1c.408-3.271.793-5.384,1.166-7.427a94.084,94.084,0,0,0,1.349-9.689c.487-8.287,1.27-16.623,2.327-24.777l.367-2.99c1.133-9.113,2.466-18.854,4.531-28.346,1.011-4.025,1.9-8.166,2.65-12.31a49.857,49.857,0,0,0,2.2-9.639,95.81,95.81,0,0,0,1.239-10.1,18.127,18.127,0,0,0,1.2-6.624,63.787,63.787,0,0,0-.315-9.038,58.435,58.435,0,0,0-1.289-9.28,52.935,52.935,0,0,0-3.308-12.2,118.67,118.67,0,0,0-4.612-12.925,126.594,126.594,0,0,0-9.875-18.576,130.717,130.717,0,0,0-11.716-16.027A109.56,109.56,0,0,0,268.6,17.985a92.992,92.992,0,0,0-12.668-7.907,94.373,94.373,0,0,0-16.778-7A84.54,84.54,0,0,0,228,.726,68.59,68.59,0,0,0,218,0ZM86.892,215.1a3.435,3.435,0,0,0,1.392-.558.789.789,0,0,0,.408-.513.642.642,0,0,0-.208-.5c-.066-.074-.13-.145-.193-.208a7.261,7.261,0,0,0,1.361-.76,5.306,5.306,0,0,0,2.889-1.716.169.169,0,0,0-.024-.174c-.619-.644-1.27-1.353-1.991-2.169.5-.352.8-.663.827-.852a.142.142,0,0,0-.032-.116,88.419,88.419,0,0,1-7.734-9.359,69.311,69.311,0,0,1-4.876-7.7,96.6,96.6,0,0,1-5.622-11.665c-.244-.651-.462-1.248-.666-1.826a101.694,101.694,0,0,1-3.062-10.152A80.8,80.8,0,0,1,67.517,156.4l-.032-.474c-.051-.925-.091-2.425-.133-4.014V151.9c-.073-2.758-.156-5.883-.322-6.91A35.648,35.648,0,0,1,71.971,143c.306-.089.636-.176.981-.258a5.467,5.467,0,0,0,.573.2,20.133,20.133,0,0,0,4.905,1.317,21.009,21.009,0,0,0,2.746.179c.213,0,.429,0,.644-.009l.483-.019c.467-.013.957-.046,1.5-.1-.02.2-.033.395-.046.585-.006.089-.012.178-.019.268a.494.494,0,0,0-.258.394,47.6,47.6,0,0,0-.022,9.668c.2,1.551.44,3.2.738,5.034.256,1.261.567,2.6.952,4.082a77.026,77.026,0,0,0,3.674,11.12c4.4,10.609,10.876,20.336,16.593,28.917,1.685,2.531,3.361,5.123,4.983,7.63,2.715,4.2,5.523,8.54,8.444,12.708,4.416,6.3,8.532,11.715,12.583,16.542a167.258,167.258,0,0,0,14.193,15.1c.783.722,1.594,1.444,2.477,2.205a118.063,118.063,0,0,0,15.44,11.293.341.341,0,0,0,.19.051,1.216,1.216,0,0,0,.7-.323l.875.538c.174.106.314.19.442.264a.162.162,0,0,0,.088.026.4.4,0,0,0,.278-.2c.307.16.616.314.914.464l.2.1c.157.127.319.252.477.373l.008.006.006,0c.11.085.224.172.335.26-3.959.2-8.017.5-12.059.893-4.445-.476-8.79-.933-12.914-1.357-2.8-.321-5.569-.6-8.242-.831-2.042-.153-3.881-.227-5.624-.227a49.289,49.289,0,0,0-6.758.434,40.948,40.948,0,0,0-4.311.838c-.9-.663-1.883-1.321-2.993-2.013l-11.372-8.7A205.922,205.922,0,0,1,81.968,241.09a135.458,135.458,0,0,1-15.793-19.866,118.994,118.994,0,0,1-11.5-22.584,2.373,2.373,0,0,1-1.106-1.742,61.127,61.127,0,0,0-2.67-9.615,62.955,62.955,0,0,1-2.617-9.3,20.676,20.676,0,0,1,.269-8.929,21.4,21.4,0,0,1,4.1-7.937,2.343,2.343,0,0,1,1.895-.829,3.26,3.26,0,0,1,1.79.535.488.488,0,0,1,.441-.261c.448,0,1.018.515,1.271,1.96a21.372,21.372,0,0,1,4.34,6.458,2.328,2.328,0,0,1-.037,2.079,2.81,2.81,0,0,1-2.032,1.3c.652,2.348,1.388,4.667,2.188,6.895a95.653,95.653,0,0,0,9.374,19.278A108.8,108.8,0,0,0,83.48,213.147a.334.334,0,0,0,.229.1l.881.974a.382.382,0,0,0,.3.1,1.453,1.453,0,0,0,.354-.053c.109.114.219.233.316.338l.006.007c.153.165.311.335.472.5a.5.5,0,0,0,.357.181.459.459,0,0,0,.366-.21A.618.618,0,0,0,86.892,215.1ZM184.28,316.633h0a23.69,23.69,0,0,1-2.363-1.5,25.877,25.877,0,0,1-2.793-2.621,27.011,27.011,0,0,1-4.8-7.569,29.726,29.726,0,0,1-.981-4.6c-.039-.322-.084-.7-.122-1.089a31.843,31.843,0,0,1,.9-10.887,40.7,40.7,0,0,1,4.161-10.115l.143,0a67.885,67.885,0,0,0,10.166,4.463,95.3,95.3,0,0,0,8.722,5.22,91.714,91.714,0,0,0,20.058,7.733l.8.2c1.6.408,3.26.781,4.941,1.108l1,.188h.014l-.108,1.068a31.831,31.831,0,0,1-10.971,19.384l-.014.008a24.365,24.365,0,0,1-3.79,1.727l-.492.171-2.277.516a28.805,28.805,0,0,1-5.643.566,28.409,28.409,0,0,1-4.154-.308c-1.415-.207-2.794-.455-4.1-.736a26.819,26.819,0,0,0,7.165-10.077,2.877,2.877,0,0,0-.17-2.794,3.966,3.966,0,0,0-6.736.89A17.548,17.548,0,0,1,184.28,316.633Zm-66.145-35.956h0a22.529,22.529,0,0,1,4.305-1.271c.621-.116,1.3-.219,2.083-.315l.093-.062c.016-.011.032-.024.048-.037h.76c1.22-.118,2.5-.177,3.815-.177a70.86,70.86,0,0,1,12.313,1.3c4.447.447,8.967.929,13.338,1.4l.04,0c3.046.325,6.2.661,9.305.983l.038,0c.106,0,.163-.053.163-.153l.465.043a.593.593,0,0,0,.063,0,1.253,1.253,0,0,0,1-.839.527.527,0,0,0-.113-.625,6.915,6.915,0,0,0,1.1-.866l.171.015a31.278,31.278,0,0,0-2.413,6.373l-.73,3.71a34.062,34.062,0,0,0-.337,4.311c-.059.8-.086,1.361-.086,1.834,0,.589.009,1.081.029,1.546a45.1,45.1,0,0,1-4.347,1.54l-3.24.4-.086.011c-3.026.372-6.155.757-9.235,1.13-2.566-.095-5.1-.28-7.534-.551-2.781-.245-5.643-.568-8.507-.96l-.031,0a1.646,1.646,0,0,0-.994.747L128.4,300a.458.458,0,0,0-.057,0c-.371,0-.726.44-.783.819a.522.522,0,0,0,.382.625c.284.113.579.225.9.342l.452.16-.258-.028-.037,0a.877.877,0,0,0-.277.058l-.214-.027H128.5c-.583-.074-1.185-.151-1.772-.221a.875.875,0,0,0-.107-.007.409.409,0,0,0-.445.333.911.911,0,0,0,.492.931l.282.1a1.3,1.3,0,0,0-.617,1.018.47.47,0,0,0,.3.412l.082.031c.182.072.363.137.537.2l.315.115a.436.436,0,0,0,.007.257l-1.182-.15c-.008,0-.012,0-.014.008a2.4,2.4,0,0,0,.666.881l.042.021.566.172a2.234,2.234,0,0,0,.7.83c1.992.626,3.952,1.226,6.03,1.691a.651.651,0,0,0,.344.244c1.15.274,2.4.515,3.81.737.1.152.184.223.272.23a49.221,49.221,0,0,0,6.175.391c1.1,0,2.222-.038,3.328-.113.659-.061,1.256-.127,1.826-.2,1.273-.141,2.417-.31,3.495-.516a47.956,47.956,0,0,0,8.508-2.28l.637-.24c.759-.282,1.434-.552,2.062-.824a28.9,28.9,0,0,0,1.282,3.609c.073.213.155.426.258.673l-.695.416a.719.719,0,0,0-.534-.421.238.238,0,0,0-.125.034,85.119,85.119,0,0,1-15.79,8.393,81.317,81.317,0,0,1-9.546,3.516c-1.441.463-3,.922-4.912,1.446-.915.192-1.679.35-2.485.488a71.877,71.877,0,0,1-13.119,2.255c-3.214.3-6.565.457-9.959.457-3.309,0-6.781-.146-10.321-.435-4.374-.433-8.807-1.045-13.177-1.819a68.244,68.244,0,0,1-8.708-2.113l1.631-3.3a177.972,177.972,0,0,1,8.8-16.131,78.141,78.141,0,0,1,5.543-7.655,38.438,38.438,0,0,1,4.476-4.856c.372-.454.8-.929,1.353-1.5a26.044,26.044,0,0,1,4.848-3.315,33.338,33.338,0,0,1,4.407-2.7l.577-.289,5.371-2.062c.262-.074.566-.16.867-.239l.437-.112.816-.171.613.333c.111.059.213.112.311.162a.2.2,0,0,0,.093.025c.116,0,.2-.124.236-.24a.294.294,0,0,0-.043-.193l.783.423Zm161.074,16.632a.253.253,0,0,0,.149-.047l.485-.336a37.652,37.652,0,0,0,11.14-5.042l-.061.449c-.01.075-.022.15-.035.224.057.878.072,1.765.043,2.636a58.037,58.037,0,0,1-4.461,14.73.43.43,0,0,0,.047.337,47.239,47.239,0,0,1-3.339,4.781c-.652-1.127-1.274-2.141-1.9-3.1a72.413,72.413,0,0,0-11.52-13.658h.1c1.171,0,2.291-.049,3.328-.147a40.242,40.242,0,0,0,5.722-.961A.517.517,0,0,0,279.209,297.309Zm-37.945,1.486a98.587,98.587,0,0,0,11.547-.68,66.674,66.674,0,0,1,6.48,4.4c.6.46,1.207.95,1.869,1.5a71.915,71.915,0,0,1,10,10.7,71.132,71.132,0,0,1,7.132,11.522,73.867,73.867,0,0,1,4.354,11.838,56.646,56.646,0,0,1,1.625,11.221c.091.667.149,1.33.193,1.89l-.006.27-.008.131c-.075,1.425-.223,2.848-.358,4.053a42.66,42.66,0,0,1-4.454-1.06,36.143,36.143,0,0,1-8.049-2.184c-3.13-1.111-6.366-2.438-10.491-4.3a86.544,86.544,0,0,1-18.712-11.5c-.375-.286-.741-.586-1.065-.85-1.384-1.2-2.6-2.34-3.712-3.5l-1.31-1.422-.018-.019c-.786-.853-1.6-1.735-2.4-2.605-.559-.586-1.16-1.161-1.741-1.717a32.067,32.067,0,0,1-2.9-3.03,8.843,8.843,0,0,1-.744-1.125l.809-.278a.782.782,0,0,0,.445-.883c-.036-.219-.166-.453-.424-.453a.486.486,0,0,0-.129.018,6.776,6.776,0,0,0-.659.229.793.793,0,0,0,.172-.35.742.742,0,0,0-.171-.551.448.448,0,0,0-.34-.164.483.483,0,0,0-.133.02,4.721,4.721,0,0,0-.58.2,2.647,2.647,0,0,1-.1-.659.543.543,0,0,1,.114-.037,3.011,3.011,0,0,0,1.489-1.4.584.584,0,0,0-.1-.5.512.512,0,0,0-.405-.205.543.543,0,0,0-.142.019,5.541,5.541,0,0,0-.924.358,1.051,1.051,0,0,0,.372-.581.753.753,0,0,0-.193-.537.472.472,0,0,0-.344-.166.436.436,0,0,0-.114.016,4.955,4.955,0,0,0-1.8.9.611.611,0,0,0-.408-.273.215.215,0,0,0-.058.008l-.279.086c.078-.072.147-.147.215-.22l.1-.109a34.995,34.995,0,0,0,5.084-7.04,1.918,1.918,0,0,0,.244.216c.574.485,1.221,1,1.976,1.589l.2.176.207.176-1.5-.494.034.039.1.135a7.309,7.309,0,0,0,.486.6l.037.034A33.453,33.453,0,0,0,238.5,316.9a30.121,30.121,0,0,0,4.941,2.586,101.711,101.711,0,0,0,12.624,4.711c.253.082.511.167.76.25l.006,0c.363.12.774.257,1.167.379a.356.356,0,0,0,.111.023.087.087,0,0,0,.072-.028.167.167,0,0,0,.01-.138l.337.1a.509.509,0,0,0,.156.023,1.421,1.421,0,0,0,1.076-.8.533.533,0,0,0-.014-.585c.226-.184.467-.4.7-.634l.153-.154.171.05a.48.48,0,0,0,.142.02c.393,0,.993-.412,1.781-1.225l.4-.428c.178-.19.593-.636.514-.965a.476.476,0,0,0-.342-.311l-.924-.314c.032-.209-.075-.353-.336-.451-.335-.112-.667-.233-.953-.337.185-.162.369-.331.563-.516l.275-.264.049-.05c.258-.262.691-.7.631-1.035a.422.422,0,0,0-.266-.3l-.085-.035-.881-.315a.473.473,0,0,0,.032-.379.533.533,0,0,0-.333-.265,141.522,141.522,0,0,1-15.067-6.123,47,47,0,0,0-11.644-4.547.335.335,0,0,0-.1-.015,1.976,1.976,0,0,0-1.265.923l-.61-.18c-.112-.033-.212-.06-.306-.084l-.1-.022a31.555,31.555,0,0,0,1.647-6.394c.034-.187.064-.391.086-.588.888.073,1.673.127,2.4.165C237.8,298.748,239.541,298.794,241.264,298.794Zm-9.636,8.879c-.2-.069-.358-.121-.508-.165.094-.208.183-.412.287-.659l.011,0,.676.533A2.4,2.4,0,0,0,231.628,307.674ZM105.232,99.209a2.533,2.533,0,0,0-1.337.47c-.413.266-.838.532-1.3.813l-.657.4-.013,0a.083.083,0,0,1,.013.011,90.373,90.373,0,0,1-20.531,9.252c-.042.015-.055.07-.039.163a11.83,11.83,0,0,0,1.742,2.967c1.055,1.429,1.946,2.283,2.384,2.283a.3.3,0,0,0,.088-.012c-.056.022-.081.046-.077.071a9.407,9.407,0,0,0,2.462.509c.151,0,6.77-2.485,10.064-4.088l.162-.08a53.829,53.829,0,0,0,8.407-5.211l.659-.468c.109-.079.465-.359.465-.659a15.2,15.2,0,0,0-.534-4.308C106.757,99.917,106.1,99.209,105.232,99.209ZM283.1,365.786h0a6.023,6.023,0,0,0,2.02.443,2.153,2.153,0,0,0,.9-.172C285.1,365.991,284.149,365.9,283.1,365.786Z" transform="translate(319.143 411.361) rotate(180)"/>
      </g>
    </g>
    <g id="face_Smile" data-name="face/Smile" transform="translate(7422.862 6025.754)">
      <path id="_Ink-6" data-name="ðŸ– Ink" d="M76.377,0A29,29,0,0,0,66.164,1.874,29.583,29.583,0,0,0,59.5,5.394a27.334,27.334,0,0,0-5.427,5.031,4.849,4.849,0,0,0-1.131,3.989,5.707,5.707,0,0,0,2.436,3.6,6.346,6.346,0,0,0,3.571,1.143,5.629,5.629,0,0,0,.8-.056,5.567,5.567,0,0,0,3.692-2.243l.218-.277A18.764,18.764,0,0,1,70.635,11.2a17.009,17.009,0,0,1,6.924-1.485,16.678,16.678,0,0,1,1.716.089A19.091,19.091,0,0,1,86.9,12.268a35.217,35.217,0,0,1,6.457,4.954c.462.434.952.9,1.587,1.526a2.5,2.5,0,0,0,1.317.932,2.917,2.917,0,0,0,.857.126,3.137,3.137,0,0,0,.96-.15,2.867,2.867,0,0,0,1.429-1,2.3,2.3,0,0,0,.452-1.611,13.937,13.937,0,0,0-1.909-5.73A19.438,19.438,0,0,0,93.967,6.5a26.389,26.389,0,0,0-6.182-3.961A26.5,26.5,0,0,0,76.377,0Zm7.188,37.417h0a26.583,26.583,0,0,0-8.8,1.63,45.646,45.646,0,0,0-10.349,5.4,3.631,3.631,0,0,0-1.445,2.111,4.04,4.04,0,0,0,.2,2.371,5.41,5.41,0,0,0,1.742,2.315,4.46,4.46,0,0,0,2.716.974,4.1,4.1,0,0,0,2.1-.592l.7-.5.008-.006a56.374,56.374,0,0,1,6.479-4.141A16.974,16.974,0,0,1,84.685,44.7a9.03,9.03,0,0,1,3.281.593,9.208,9.208,0,0,1,3.056,1.99A8.085,8.085,0,0,1,92.8,54.221a12.85,12.85,0,0,1-3.782,6.15,27.278,27.278,0,0,1-5.726,4.247,1.547,1.547,0,0,0-.48,1.876,2.458,2.458,0,0,0,.883,1.167,2.868,2.868,0,0,0,1.69.513,3.91,3.91,0,0,0,.607-.049,20.3,20.3,0,0,0,6.752-2.242,14.907,14.907,0,0,0,4.541-3.848,14.371,14.371,0,0,0,2.9-10.214,15.8,15.8,0,0,0-4.832-9.967A16.735,16.735,0,0,0,83.565,37.417ZM26.3,73.956a6.064,6.064,0,0,0-3.746,1.349,5.237,5.237,0,0,0-1.964,3.467,35.928,35.928,0,0,0,.226,10.17c.133.988.271,2.01.368,3.112a5.982,5.982,0,0,0,2.51,4.351,8.17,8.17,0,0,0,4.757,1.537,6.22,6.22,0,0,0,3.6-1.04,4.825,4.825,0,0,0,1.987-3.25,25.374,25.374,0,0,0-3.1-16.816,5.56,5.56,0,0,0-2.07-2.2A5.089,5.089,0,0,0,26.3,73.956Zm84.058,2.306a5.262,5.262,0,0,0-3.958,1.559,14.017,14.017,0,0,0-2.417,3.768,15.345,15.345,0,0,0-1.231,4.541c-.365,3.465.649,6.4,2.856,8.262a5.427,5.427,0,0,0,.457.641,6.591,6.591,0,0,0,4.977,2.632,5.833,5.833,0,0,0,1.511-.2,7.12,7.12,0,0,0,4.862-3.9,12.741,12.741,0,0,0,.6-7.543,23.827,23.827,0,0,0-2.488-7.115,4.845,4.845,0,0,0-2.151-1.952A6.98,6.98,0,0,0,110.358,76.263ZM.93,100.494a.93.93,0,0,0-.765.432.876.876,0,0,0-.061.924,32.623,32.623,0,0,0,7.82,9.1,48.732,48.732,0,0,0,10.465,6.571A47.717,47.717,0,0,0,30.816,121.5l1.327.213a35.075,35.075,0,0,0,5.423.54c3.026,0,5.215-.75,6.693-2.294a4.96,4.96,0,0,0,1.344-3.713,3.32,3.32,0,0,0-1.344-2.427c-2.127-1.581-4.363-1.905-7.067-1.905-.557,0-1.133.013-1.69.026h-.02c-.535.012-1.142.026-1.745.026-.555,0-1.05-.012-1.513-.036a51.622,51.622,0,0,1-10.519-1.647c-7.481-1.965-13.614-5.531-20.287-9.645A.925.925,0,0,0,.93,100.494Zm127.986,4.921h0c-.19.041-.378.085-.56.129a33.368,33.368,0,0,0-6.136,2.2l-1.993.9a58.063,58.063,0,0,1-7.117,2.787A90.358,90.358,0,0,1,96.9,114.724a6.977,6.977,0,0,0-3.252,1.135,4.471,4.471,0,0,0-1.819,2.546,4.244,4.244,0,0,0,.561,3.817,5.189,5.189,0,0,0,2.567,2.033,6.221,6.221,0,0,0,2.188.384,6.993,6.993,0,0,0,1.263-.116l1.016-.191a77.112,77.112,0,0,0,17.509-5.227,35.816,35.816,0,0,0,7.7-4.654,20.979,20.979,0,0,0,5.444-6.466c.19-1.35.014-1.685-.183-1.912l-.057-.065-.05-.062a1.409,1.409,0,0,0-.87-.531Z" transform="translate(130.157 124.64) rotate(180)"/>
    </g>
    <path id="Path-2" data-name="Path" d="M60.1-37.279,55.377-33.79l-4.34,6.671-2.1,3.235c-1.083-.146-14.9,29.07-19.325,33.475-5.585,5.559-7.493,12.123-10.237,18.292l-.1.223c-2.926,6.6-5.414,13.266-7.654,19.95A188.087,188.087,0,0,0,6.064,68.473c-.725,3.381-1.371,6.768-1.875,10.162-.252,1.7-2.274,8.817-2.48,10.515-.082.679-.524,2.817-.591,3.5l-.89,5.072a8.267,8.267,0,0,0-.163,2.439c.175.393.05,3.774.374,4.135.641.714,1.22,1.417,1.911.821l-.922-7.848c.458-.4-.874,6.976-.73,6.479.139-.482,3.505,4.207,4.482,4.478.234-1.887,4.28-28.833,4.571-30.717.575-3.719,1.192-7.435,1.95-11.144,1.347-6.592,3.82-12.77,5.812-19.31,1.946-6.388,4.942-13.76,7.509-20.076v.39Z" transform="matrix(-0.53, -0.848, 0.848, -0.53, 7528.009, 6291.988)"/>
  </g>
</svg>
