<svg xmlns="http://www.w3.org/2000/svg" xmlns:xlink="http://www.w3.org/1999/xlink" width="1920" height="1080" viewBox="0 0 1920 1080"><defs><filter id="a" x="929.5" y="334.5" width="673" height="279" filterUnits="userSpaceOnUse"><feOffset dy="13" input="SourceAlpha"/><feGaussianBlur stdDeviation="16.5" result="b"/><feFlood flood-opacity="0.051"/><feComposite operator="in" in2="b"/><feComposite in="SourceGraphic"/></filter><linearGradient id="c" x1="0.408" y1="1" x2="0.592" gradientUnits="objectBoundingBox"><stop offset="0"/><stop offset="1" stop-opacity="0"/></linearGradient><clipPath id="d"><path d="M3667.33,1264a8.33,8.33,0,0,1-8.33-8.331V1142.33a8.33,8.33,0,0,1,8.33-8.331h173.34a8.33,8.33,0,0,1,8.331,8.331V1255.67a8.33,8.33,0,0,1-8.331,8.331Z" fill="none"/></clipPath><pattern id="e" preserveAspectRatio="xMidYMid slice" width="100%" height="100%" viewBox="0 0 5184 3456"><image width="5184" height="3456" xlink:href="Video%20Home%20Page-image.jpg"/></pattern><filter id="f" x="316.5" y="334.5" width="673" height="279" filterUnits="userSpaceOnUse"><feOffset dy="13" input="SourceAlpha"/><feGaussianBlur stdDeviation="16.5" result="g"/><feFlood flood-opacity="0.051"/><feComposite operator="in" in2="g"/><feComposite in="SourceGraphic"/></filter><clipPath id="h"><path d="M3054.33,1264a8.33,8.33,0,0,1-8.33-8.329V1142.329a8.33,8.33,0,0,1,8.33-8.329h173.34a8.329,8.329,0,0,1,8.329,8.329V1255.67a8.329,8.329,0,0,1-8.329,8.329Z" fill="none"/></clipPath><pattern id="i" preserveAspectRatio="none" width="100%" height="100%" viewBox="0 0 5029 3353"><image width="5029" height="3353" xlink:href="Video%20Home%20Page-image2.jpg"/></pattern><filter id="j" x="1357.5" y="264.5" width="205" height="125" filterUnits="userSpaceOnUse"><feOffset dy="10" input="SourceAlpha"/><feGaussianBlur stdDeviation="13.5" result="k"/><feFlood flood-opacity="0.102"/><feComposite operator="in" in2="k"/><feComposite in="SourceGraphic"/></filter><linearGradient id="l" x1="0.5" x2="0.5" y2="1" gradientUnits="objectBoundingBox"><stop offset="0" stop-color="#446340"/><stop offset="1" stop-color="#5a9367"/></linearGradient><filter id="m" x="354.884" y="251.216" width="509" height="130" filterUnits="userSpaceOnUse"><feOffset dy="13" input="SourceAlpha"/><feGaussianBlur stdDeviation="13.5" result="n"/><feFlood flood-opacity="0.149"/><feComposite operator="in" in2="n"/><feComposite in="SourceGraphic"/></filter><linearGradient id="o" x1="0.053" y1="0.5" x2="1" y2="0.5" xlink:href="#l"/><clipPath id="q"><rect width="1920" height="1080"/></clipPath></defs><g id="p" clip-path="url(#q)"><rect width="1920" height="1080" fill="#fff"/><rect width="1366" height="430" transform="translate(433 156)" fill="#fff"/><g transform="translate(-2655 -738)"><text transform="translate(3263.926 1197.929)" fill="#888" font-size="14" font-family="OpenSans, Open Sans" letter-spacing="0.075em"><tspan x="0" y="0">June 2020</tspan></text><g transform="matrix(1, 0, 0, 1, 2655, 738)" filter="url(#a)"><rect width="574" height="180" rx="25" transform="translate(979 371)" fill="#fafafa"/></g><path d="M3667.33,1134h173.34a8.33,8.33,0,0,1,8.33,8.33v113.34a8.33,8.33,0,0,1-8.33,8.33H3667.33a8.33,8.33,0,0,1-8.33-8.33V1142.33A8.33,8.33,0,0,1,3667.33,1134Z" opacity="0.1" fill="url(#c)"/><g clip-path="url(#d)"><rect width="190" height="317" transform="translate(3659 1092)" fill="url(#e)"/></g><text transform="translate(4145.259 1248.929)" fill="#222" font-size="11" font-family="OpenSans, Open Sans" letter-spacing="0.1em"><tspan x="0" y="0">7</tspan></text><path d="M4125.99,1252h-.149a.841.841,0,0,1-.84-.84v-10.83a1.331,1.331,0,0,1,1.331-1.33h11.339a1.331,1.331,0,0,1,1.331,1.33v7.311a1.331,1.331,0,0,1-1.331,1.33h-8.4l-2.485,2.468A.84.84,0,0,1,4125.99,1252Zm.836-11.186v8.162l1.521-1.814h8.826v-6.349Z" fill="#aaa"/><text transform="translate(3896.592 1248.262)" fill="#222" font-size="11" font-family="OpenSans, Open Sans" letter-spacing="0.1em"><tspan x="0" y="0">Support Team</tspan></text><path d="M4165.33,1186a1.33,1.33,0,0,1-1.33-1.329v-.341a1.33,1.33,0,0,1,1.33-1.329h.34a1.33,1.33,0,0,1,1.331,1.329v.341a1.33,1.33,0,0,1-1.331,1.329Zm0-6.33a1.33,1.33,0,0,1-1.33-1.329V1178a1.33,1.33,0,0,1,1.33-1.33h.34A1.33,1.33,0,0,1,4167,1178v.34a1.33,1.33,0,0,1-1.331,1.329Zm0-6.339A1.33,1.33,0,0,1,4164,1172v-.34a1.331,1.331,0,0,1,1.33-1.33h.34a1.331,1.331,0,0,1,1.331,1.33v.34a1.33,1.33,0,0,1-1.331,1.33Z" fill="#aaa"/><text transform="translate(3876.009 1172.034)" fill="#444" font-size="20" font-family="OpenSans, Open Sans" letter-spacing="0.05em"><tspan x="0" y="0">Support Chat</tspan></text><text transform="translate(3878.926 1196.929)" fill="#888" font-size="14" font-family="OpenSans, Open Sans" letter-spacing="0.075em"><tspan x="0" y="0">October 2019</tspan></text><g transform="matrix(1, 0, 0, 1, 2655, 738)" filter="url(#f)"><rect width="574" height="180" rx="25" transform="translate(366 371)" fill="#fafafa"/></g><g clip-path="url(#h)"><rect width="201.5" height="133.5" transform="translate(3040 1134)" fill="url(#i)"/></g><text transform="translate(3542.259 1248.929)" fill="#222" font-size="11" font-family="OpenSans, Open Sans" letter-spacing="0.1em"><tspan x="0" y="0">4</tspan></text><path d="M3522.99,1252h-.149a.841.841,0,0,1-.841-.84V1240.33a1.331,1.331,0,0,1,1.33-1.329h11.34a1.331,1.331,0,0,1,1.33,1.329v7.311a1.331,1.331,0,0,1-1.33,1.329h-8.4l-2.485,2.468A.843.843,0,0,1,3522.99,1252Zm.837-11.186v8.163l1.521-1.814h8.826v-6.349Z" fill="#aaa"/><text transform="translate(3283.592 1248.262)" fill="#222" font-size="11" font-family="OpenSans, Open Sans" letter-spacing="0.1em"><tspan x="0" y="0">Product Team</tspan></text><path d="M782,981H771.43l-4.625-4.7a1,1,0,0,0-.71-.3H749a1,1,0,0,0-1,1v4h-4a1,1,0,0,0-1,1v23a1,1,0,0,0,1,1h38a1,1,0,0,0,1-1V982A1,1,0,0,0,782,981Zm-32-3h15.675l2.95,3H750Zm31,26H745V983h36Z" transform="translate(2708 -79)" fill="#aaa"/><path d="M3562.33,1181a1.329,1.329,0,0,1-1.329-1.33v-.339a1.329,1.329,0,0,1,1.329-1.33h.34a1.33,1.33,0,0,1,1.33,1.33v.339a1.33,1.33,0,0,1-1.33,1.33Zm0-6.33a1.33,1.33,0,0,1-1.329-1.33V1173a1.329,1.329,0,0,1,1.329-1.329h.34A1.33,1.33,0,0,1,3564,1173v.34a1.33,1.33,0,0,1-1.33,1.33Zm0-6.341A1.329,1.329,0,0,1,3561,1167v-.34a1.33,1.33,0,0,1,1.329-1.33h.34a1.33,1.33,0,0,1,1.33,1.33v.34a1.33,1.33,0,0,1-1.33,1.329Z" fill="#aaa"/><text transform="translate(3263.926 1196.929)" fill="#888" font-size="14" font-family="OpenSans, Open Sans" letter-spacing="0.075em"><tspan x="0" y="0">February 2020</tspan></text><text transform="translate(3263.009 1172.034)" fill="#444" font-size="20" font-family="OpenSans, Open Sans" letter-spacing="0.05em"><tspan x="0" y="0">Product Review</tspan></text><path d="M759.509,978.116h-4.474l-1.958-1.989a.423.423,0,0,0-.3-.127H745.54a.425.425,0,0,0-.423.423v1.693h-1.693a.425.425,0,0,0-.423.423v9.736a.424.424,0,0,0,.423.423h16.085a.424.424,0,0,0,.423-.423V978.54A.425.425,0,0,0,759.509,978.116Zm-13.546-1.27H752.6l1.249,1.27h-7.884Zm13.122,11.006H743.847v-8.889h15.239Z" transform="translate(2520 262)" fill="#aaa"/></g><rect width="4" height="100" rx="2" transform="translate(1634 385)" fill="#ccc"/><g transform="translate(-2655 -738)"><g transform="matrix(1, 0, 0, 1, 2655, 738)" filter="url(#j)"><rect width="124" height="44" rx="22" transform="translate(1398 295)" fill="rgba(0,0,0,0.41)"/></g><path d="M4075,1033h80a22,22,0,0,1,0,44h-80a22,22,0,0,1,0-44Z" opacity="0.5" fill="url(#l)"/><text transform="translate(4099.926 1059.262)" fill="#fff" font-size="12" font-family="OpenSans, Open Sans" letter-spacing="0.1em"><tspan x="0" y="0">Upload</tspan></text><path d="M4083.33,1059v-3h-3a1,1,0,0,1,0-2h3v-3a1,1,0,0,1,2,0v3h3a1,1,0,1,1,0,2h-3v3a1,1,0,1,1-2,0Z" fill="rgba(255,255,255,0.5)"/><g transform="matrix(1, 0, 0, 1, 2655, 738)" filter="url(#m)"><text transform="translate(395.38 316.72)" fill="#444" font-size="36" font-family="OpenSans, Open Sans" letter-spacing="0.025em"><tspan x="0" y="0">Recent Uploaded Videos</tspan></text></g></g><g transform="translate(-2655 -738)"><rect width="1246" height="2" transform="translate(2992 973)" fill="rgba(204,204,204,0.25)"/><rect width="140" height="2" transform="translate(3253 973)" fill="#5a9367"/><text transform="translate(3916.792 952.929)" fill="#aaa" font-size="12" font-family="OpenSans, Open Sans" letter-spacing="0.1em"><tspan x="-21.6" y="0">Profile</tspan></text><text transform="translate(3771.792 952.929)" fill="#aaa" font-size="12" font-family="OpenSans, Open Sans" letter-spacing="0.1em"><tspan x="-21.864" y="0">Search</tspan></text><text transform="translate(3613.792 952.929)" fill="#aaa" font-size="12" font-family="OpenSans, Open Sans" letter-spacing="0.1em"><tspan x="-30.177" y="0">Favorites</tspan></text><text transform="translate(3470.792 952.929)" fill="#aaa" font-size="12" font-family="Montserrat-Medium, Montserrat" font-weight="500" letter-spacing="0.1em"><tspan x="-26.004" y="0">Folders</tspan></text><text transform="translate(3323.792 952.929)" fill="#5a9367" font-size="12" font-family="OpenSans, Open Sans" letter-spacing="0.1em"><tspan x="-46.475" y="0">Recent Videos</tspan></text><text transform="translate(3058.592 926.929)" fill="#aaa" font-size="13" font-family="OpenSans, Open Sans" letter-spacing="0.1em"><tspan x="0" y="0">Menu</tspan></text><path d="M3906.064,924.607A15,15,0,1,1,3916.67,929,14.9,14.9,0,0,1,3906.064,924.607Zm17.513-4.041.377,3.6a12.69,12.69,0,0,0,1.555-1.325,12.5,12.5,0,1,0-17.678,0,12.7,12.7,0,0,0,1.553,1.323l.377-3.595h.018c.323-3.056,3.29-5.457,6.891-5.457s6.568,2.4,6.891,5.457Zm-9.727-10.9a2.83,2.83,0,1,1,2.83,2.86A2.845,2.845,0,0,1,3913.85,909.67Z" fill="#ccc"/><path d="M1597.4,410.119l-8.356-8.365a13.626,13.626,0,0,0-1.849-16.844A13.358,13.358,0,0,0,1577.66,381a13.879,13.879,0,0,0-9.751,4.005,13.308,13.308,0,0,0-3.9,9.537,13.673,13.673,0,0,0,13.64,13.569,13.36,13.36,0,0,0,7.119-2.042l8.343,8.343a.865.865,0,0,0,1.232,0l3.059-3.061A.863.863,0,0,0,1597.4,410.119Zm-19.754-3.756a11.927,11.927,0,0,1-11.892-11.833,11.892,11.892,0,0,1,20.209-8.387,12.067,12.067,0,0,1-.1,16.827A11.539,11.539,0,0,1,1577.647,406.363Zm16.079,6.2-7.526-7.53c.271-.229,1.492-1.441,1.814-1.832l7.535,7.539Z" transform="translate(2190 518)" fill="#aaa"/><path d="M3624.3,924.964a1.109,1.109,0,0,1-.138.009l-2.5-2.861-2.5,2.861a1.107,1.107,0,0,1-.125-.007.72.72,0,0,1-.592.365c-.436,0-.79-.483-.79-1.08a1.469,1.469,0,0,1,.01-.172v-1.04c0-.041,0-.083,0-.125v-3.09c0-.042,0-.084,0-.125V912.54a1.671,1.671,0,0,1,1.67-1.67H3624a1.671,1.671,0,0,1,1.67,1.67v7.69q0,.056,0,.111v2.089h0v1.81h0s0,.007,0,.01c0,.6-.35,1.08-.78,1.08A.71.71,0,0,1,3624.3,924.964Zm-22.8-1.274a1.169,1.169,0,0,1-1.17-1.17v-.29a1.169,1.169,0,0,1,1.17-1.17h12.33a1.169,1.169,0,0,1,1.17,1.17v.29a1.169,1.169,0,0,1-1.17,1.17Zm0-9.21a1.169,1.169,0,0,1-1.17-1.17v-.28a1.169,1.169,0,0,1,1.17-1.17h12.33a1.169,1.169,0,0,1,1.17,1.17v.28a1.169,1.169,0,0,1-1.17,1.17Zm0-9.19a1.169,1.169,0,0,1-1.17-1.17v-.28a1.169,1.169,0,0,1,1.17-1.17h24.33a1.169,1.169,0,0,1,1.17,1.17v.28a1.169,1.169,0,0,1-1.17,1.17Z" fill="#ccc"/><circle cx="2.33" cy="2.33" r="2.33" transform="translate(4138.84 941.5)" fill="#779578"/><path d="M4203.33,925.412a7.012,7.012,0,1,1,1.461-1.368l4.744,4.744-1.415,1.414Zm-9-5.742a5,5,0,1,0,5-5A5.007,5.007,0,0,0,4194.329,919.67Z" fill="#aaa"/><path d="M4141,930.333a2.169,2.169,0,0,1-2.167-2.166h-5.417a1.085,1.085,0,0,1-1.084-1.084,1.063,1.063,0,0,1,.116-.483l2.052-4.105v-3a6.5,6.5,0,1,1,13,0v3l2.053,4.105a1.083,1.083,0,0,1-.97,1.567h-5.417A2.17,2.17,0,0,1,4141,930.333Zm-4.494-7.06-1.6,2.888h12.2l-1.6-2.889,0-3.531h-.012c.007-.111.012-.216.012-.321a4.49,4.49,0,0,0-8.98,0c0,.1,0,.207.011.321h-.011v3.531h0Z" fill="#aaa"/><path d="M3021,928.67a1,1,0,1,1,0-2h9.329a1,1,0,0,1,0,2Zm0-6a1,1,0,1,1,0-2h17.329a1,1,0,1,1,0,2Zm0-5.67a1,1,0,1,1,0-2h14a1,1,0,1,1,0,2Z" fill="#aaa"/><path d="M644.445,683.175,636,688.639V687a4.005,4.005,0,0,0-4-4H612a4.005,4.005,0,0,0-4,4v16a4,4,0,0,0,4,4h20a4,4,0,0,0,4-4v-1.63l8.445,5.459c1.051.611,1.555-.741,1.555-.83V684A1.021,1.021,0,0,0,644.445,683.175ZM634,703a2,2,0,0,1-2,2H612a2,2,0,0,1-2-2V687a2,2,0,0,1,2-2h20a2,2,0,0,1,2,2Zm10,1.16-8-5.174v-7.968l8-5.174Z" transform="translate(2696 217)" fill="url(#o)"/></g><path d="M759.509,978.116h-4.474l-1.958-1.989a.423.423,0,0,0-.3-.127H745.54a.425.425,0,0,0-.423.423v1.693h-1.693a.425.425,0,0,0-.423.423v9.736a.424.424,0,0,0,.423.423h16.085a.424.424,0,0,0,.423-.423V978.54A.425.425,0,0,0,759.509,978.116Zm-13.546-1.27H752.6l1.249,1.27h-7.884Zm13.122,11.006H743.847v-8.889h15.239Z" transform="translate(477 -476)" fill="#aaa"/></g></svg>